Sintony-Bold.otf.ufo
<glyph name="dollar" format="1">
  <advance width="630"/>
  <unicode hex="0024"/>
  <outline>
    <contour>
      <point x="272" y="-113" type="line"/>
      <point x="363" y="-113" type="line"/>
      <point x="363" y="-5" type="line"/>
      <point x="505" y="6" smooth="yes"/>
      <point x="576" y="74" smooth="yes"/>
      <point x="576" y="200" type="curve" smooth="yes"/>
      <point x="576" y="327" smooth="yes"/>
      <point x="511" y="398" smooth="yes"/>
      <point x="377" y="415" type="curve" smooth="yes"/>
      <point x="289" y="427" type="line" smooth="yes"/>
      <point x="231" y="434" smooth="yes"/>
      <point x="204" y="465" smooth="yes"/>
      <point x="204" y="524" type="curve" smooth="yes"/>
      <point x="204" y="598" smooth="yes"/>
      <point x="239" y="630" smooth="yes"/>
      <point x="322" y="630" type="curve" smooth="yes"/>
      <point x="406" y="630"/>
      <point x="441" y="597"/>
      <point x="441" y="517" type="curve"/>
      <point x="559" y="526" type="line"/>
      <point x="559" y="659"/>
      <point x="499" y="722"/>
      <point x="363" y="734" type="curve"/>
      <point x="363" y="843" type="line"/>
      <point x="272" y="843" type="line" name="hr01"/>
      <point x="272" y="734" type="line"/>
      <point x="135" y="722" smooth="yes"/>
      <point x="70" y="654" smooth="yes"/>
      <point x="70" y="524" type="curve" smooth="yes"/>
      <point x="70" y="399" smooth="yes"/>
      <point x="129" y="336" smooth="yes"/>
      <point x="258" y="315" type="curve" smooth="yes"/>
      <point x="345" y="301" type="line" smooth="yes"/>
      <point x="411" y="290" smooth="yes"/>
      <point x="443" y="257" smooth="yes"/>
      <point x="443" y="200" type="curve" smooth="yes"/>
      <point x="443" y="127" smooth="yes"/>
      <point x="404" y="95" smooth="yes"/>
      <point x="314" y="95" type="curve" smooth="yes"/>
      <point x="224" y="95"/>
      <point x="184" y="131"/>
      <point x="184" y="212" type="curve"/>
      <point x="66" y="203" type="line"/>
      <point x="66" y="68"/>
      <point x="129" y="5"/>
      <point x="272" y="-5" type="curve"/>
    </contour>
  </outline>
</glyph>
<glyph name="ampersand" format="1">
  <advance width="645"/>
  <unicode hex="0026"/>
  <outline>
    <contour>
      <point x="289" y="-15" type="curve"/>
      <point x="482" y="-15" smooth="yes"/>
      <point x="541" y="41" smooth="yes"/>
      <point x="541" y="226" type="curve" smooth="yes"/>
      <point x="541" y="321" type="line"/>
      <point x="653" y="321" type="line"/>
      <point x="653" y="414" type="line" name="hr01"/>
      <point x="359" y="414" type="line"/>
      <point x="359" y="321" type="line"/>
      <point x="423" y="321" type="line"/>
      <point x="423" y="211" type="line" smooth="yes"/>
      <point x="423" y="127" smooth="yes"/>
      <point x="386" y="92" smooth="yes"/>
      <point x="299" y="92" type="curve" smooth="yes"/>
      <point x="210" y="92" smooth="yes"/>
      <point x="173" y="125" smooth="yes"/>
      <point x="173" y="204" type="curve" smooth="yes"/>
      <point x="173" y="284"/>
      <point x="210" y="321"/>
      <point x="290" y="321" type="curve"/>
      <point x="290" y="414" type="line"/>
      <point x="279" y="414" type="line" smooth="yes"/>
      <point x="228" y="414" smooth="yes"/>
      <point x="193" y="459" smooth="yes"/>
      <point x="193" y="527" type="curve" smooth="yes"/>
      <point x="193" y="602" smooth="yes"/>
      <point x="225" y="637" smooth="yes"/>
      <point x="294" y="637" type="curve" smooth="yes"/>
      <point x="348" y="637"/>
      <point x="376" y="613"/>
      <point x="386" y="557" type="curve"/>
      <point x="500" y="593" type="line"/>
      <point x="481" y="699" smooth="yes"/>
      <point x="417" y="744" smooth="yes"/>
      <point x="282" y="744" type="curve" smooth="yes"/>
      <point x="138" y="744" smooth="yes"/>
      <point x="59" y="674" smooth="yes"/>
      <point x="59" y="544" type="curve" smooth="yes" name="hr02"/>
      <point x="59" y="468"/>
      <point x="107" y="401"/>
      <point x="180" y="376" type="curve"/>
      <point x="92" y="353" smooth="yes"/>
      <point x="39" y="285" smooth="yes"/>
      <point x="39" y="195" type="curve" smooth="yes"/>
      <point x="39" y="58" smooth="yes"/>
      <point x="126" y="-15" smooth="yes"/>
    </contour>
  </outline>
</glyph>
<glyph name="parenleft" format="1">
  <advance width="318"/>
  <unicode hex="0028"/>
  <outline>
    <contour>
      <point x="309" y="-66" type="curve" name="hr00"/>
      <point x="309" y="28" type="line"/>
      <point x="216" y="28" smooth="yes"/>
      <point x="178" y="118" smooth="yes"/>
      <point x="178" y="335" type="curve" smooth="yes"/>
      <point x="178" y="551"/>
      <point x="217" y="641"/>
      <point x="309" y="641" type="curve"/>
      <point x="309" y="735" type="line"/>
      <point x="119" y="735" smooth="yes"/>
      <point x="37" y="614" smooth="yes"/>
      <point x="37" y="335" type="curve" smooth="yes"/>
      <point x="37" y="54"/>
      <point x="119" y="-66"/>
    </contour>
  </outline>
</glyph>
<glyph name="comma" format="1">
  <advance width="226"/>
  <unicode hex="002C"/>
  <outline>
    <contour>
      <point x="54" y="-138" type="line"/>
      <point x="112" y="-92" smooth="yes"/>
      <point x="181" y="-23" smooth="yes"/>
      <point x="181" y="74" type="curve" smooth="yes" name="hr01"/>
      <point x="181" y="109" smooth="yes"/>
      <point x="177" y="149" smooth="yes"/>
      <point x="112" y="149" type="curve" smooth="yes"/>
      <point x="50" y="149" smooth="yes"/>
      <point x="45" y="109" smooth="yes"/>
      <point x="45" y="74" type="curve" smooth="yes"/>
      <point x="45" y="36" smooth="yes"/>
      <point x="65" y="10" smooth="yes"/>
      <point x="65" y="-18" type="curve" smooth="yes"/>
      <point x="65" y="-51"/>
      <point x="42" y="-75"/>
      <point x="19" y="-97" type="curve"/>
    </contour>
  </outline>
</glyph>
<glyph name="period" format="1">
  <advance width="234"/>
  <unicode hex="002E"/>
  <outline>
    <contour>
      <point x="116" y="-8" type="curve" smooth="yes" name="hr00"/>
      <point x="167" y="-8" smooth="yes"/>
      <point x="189" y="15" smooth="yes"/>
      <point x="189" y="70" type="curve" smooth="yes"/>
      <point x="189" y="126" smooth="yes"/>
      <point x="168" y="149" smooth="yes"/>
      <point x="116" y="149" type="curve" smooth="yes"/>
      <point x="66" y="149" smooth="yes"/>
      <point x="45" y="126" smooth="yes"/>
      <point x="45" y="70" type="curve" smooth="yes"/>
      <point x="45" y="16" smooth="yes"/>
      <point x="67" y="-8" smooth="yes"/>
    </contour>
  </outline>
</glyph>
<glyph name="three" format="1">
  <advance width="646"/>
  <unicode hex="0033"/>
  <outline>
    <contour>
      <point x="314" y="-14" type="curve" name="hr00"/>
      <point x="469" y="-14" smooth="yes"/>
      <point x="573" y="67" smooth="yes"/>
      <point x="573" y="189" type="curve" smooth="yes"/>
      <point x="573" y="273"/>
      <point x="533" y="333"/>
      <point x="456" y="364" type="curve"/>
      <point x="526" y="397" smooth="yes"/>
      <point x="564" y="454" smooth="yes"/>
      <point x="564" y="526" type="curve" smooth="yes"/>
      <point x="564" y="662" smooth="yes"/>
      <point x="471" y="744" smooth="yes"/>
      <point x="316" y="744" type="curve" smooth="yes"/>
      <point x="161" y="744"/>
      <point x="81" y="678"/>
      <point x="72" y="541" type="curve"/>
      <point x="189" y="525" type="line"/>
      <point x="192" y="600" smooth="yes"/>
      <point x="232" y="638" smooth="yes"/>
      <point x="307" y="638" type="curve" smooth="yes"/>
      <point x="385" y="638" smooth="yes"/>
      <point x="430" y="598" smooth="yes"/>
      <point x="430" y="527" type="curve" smooth="yes"/>
      <point x="430" y="448" smooth="yes"/>
      <point x="388" y="410" smooth="yes"/>
      <point x="298" y="410" type="curve" smooth="yes"/>
      <point x="223" y="410" type="line"/>
      <point x="223" y="312" type="line"/>
      <point x="297" y="312" type="line" smooth="yes"/>
      <point x="392" y="312" smooth="yes"/>
      <point x="440" y="274" smooth="yes"/>
      <point x="440" y="198" type="curve" smooth="yes"/>
      <point x="440" y="128" smooth="yes"/>
      <point x="395" y="92" smooth="yes"/>
      <point x="307" y="92" type="curve" smooth="yes"/>
      <point x="227" y="92"/>
      <point x="183" y="126"/>
      <point x="176" y="193" type="curve"/>
      <point x="59" y="178" type="line"/>
      <point x="72" y="47" smooth="yes"/>
      <point x="153" y="-14" smooth="yes"/>
    </contour>
  </outline>
</glyph>
<glyph name="five" format="1">
  <advance width="646"/>
  <unicode hex="0035"/>
  <outline>
    <contour>
      <point x="327" y="-14" type="curve" name="hr00"/>
      <point x="485" y="-14" smooth="yes"/>
      <point x="589" y="77" smooth="yes"/>
      <point x="589" y="214" type="curve" smooth="yes"/>
      <point x="589" y="373" smooth="yes"/>
      <point x="479" y="457" smooth="yes"/>
      <point x="269" y="457" type="curve" smooth="yes"/>
      <point x="225" y="457" type="line"/>
      <point x="236" y="624" type="line"/>
      <point x="543" y="624" type="line"/>
      <point x="543" y="730" type="line"/>
      <point x="123" y="730" type="line"/>
      <point x="98" y="348" type="line"/>
      <point x="222" y="348" type="line" smooth="yes"/>
      <point x="382" y="348" smooth="yes"/>
      <point x="454" y="307" smooth="yes"/>
      <point x="454" y="214" type="curve" smooth="yes"/>
      <point x="454" y="136" smooth="yes"/>
      <point x="407" y="91" smooth="yes"/>
      <point x="327" y="91" type="curve" smooth="yes"/>
      <point x="247" y="91"/>
      <point x="207" y="132"/>
      <point x="203" y="218" type="curve"/>
      <point x="86" y="208" type="line"/>
      <point x="94" y="61" smooth="yes"/>
      <point x="175" y="-14" smooth="yes"/>
    </contour>
  </outline>
</glyph>
<glyph name="equal" format="1">
  <advance width="580"/>
  <unicode hex="003D"/>
  <outline>
    <contour>
      <point x="86" y="380" type="line" name="hr00"/>
      <point x="494" y="380" type="line"/>
      <point x="494" y="472" type="line"/>
      <point x="86" y="472" type="line"/>
    </contour>
    <contour>
      <point x="86" y="164" type="line"/>
      <point x="494" y="164" type="line"/>
      <point x="494" y="256" type="line"/>
      <point x="86" y="256" type="line"/>
    </contour>
  </outline>
</glyph>
<glyph name="at" format="1">
  <advance width="1052"/>
  <unicode hex="0040"/>
  <outline>
    <contour>
      <point x="534" y="-113" type="curve" name="hr00"/>
      <point x="708" y="-113" type="line"/>
      <point x="708" y="-18" type="line"/>
      <point x="534" y="-18" type="line" smooth="yes"/>
      <point x="295" y="-18" smooth="yes"/>
      <point x="200" y="80" smooth="yes"/>
      <point x="200" y="328" type="curve" smooth="yes"/>
      <point x="200" y="562" smooth="yes"/>
      <point x="309" y="674" smooth="yes"/>
      <point x="534" y="674" type="curve" smooth="yes"/>
      <point x="746" y="674" smooth="yes"/>
      <point x="861" y="566" smooth="yes"/>
      <point x="861" y="365" type="curve" smooth="yes"/>
      <point x="861" y="252" smooth="yes"/>
      <point x="829" y="213" smooth="yes"/>
      <point x="737" y="213" type="curve" smooth="yes"/>
      <point x="708" y="213" type="line"/>
      <point x="708" y="565" type="line"/>
      <point x="656" y="565" type="line"/>
      <point x="631" y="533" type="line"/>
      <point x="589" y="553" smooth="yes"/>
      <point x="540" y="565" smooth="yes"/>
      <point x="496" y="565" type="curve" smooth="yes"/>
      <point x="372" y="565" smooth="yes"/>
      <point x="310" y="490" smooth="yes"/>
      <point x="310" y="340" type="curve" smooth="yes"/>
      <point x="310" y="190" smooth="yes"/>
      <point x="361" y="115" smooth="yes"/>
      <point x="463" y="115" type="curve" smooth="yes"/>
      <point x="510" y="115"/>
      <point x="557" y="135"/>
      <point x="597" y="173" type="curve"/>
      <point x="630" y="125" type="line"/>
      <point x="749" y="125" type="line" smooth="yes"/>
      <point x="911" y="125" smooth="yes"/>
      <point x="978" y="196" smooth="yes"/>
      <point x="978" y="365" type="curve" smooth="yes"/>
      <point x="978" y="620" smooth="yes"/>
      <point x="814" y="769" smooth="yes"/>
      <point x="534" y="769" type="curve" smooth="yes"/>
      <point x="237" y="769" smooth="yes"/>
      <point x="74" y="613" smooth="yes"/>
      <point x="74" y="328" type="curve" smooth="yes"/>
      <point x="74" y="26"/>
      <point x="219" y="-113"/>
    </contour>
    <contour>
      <point x="513" y="206" type="curve" smooth="yes"/>
      <point x="458" y="206" smooth="yes"/>
      <point x="430" y="252" smooth="yes"/>
      <point x="430" y="340" type="curve" smooth="yes"/>
      <point x="430" y="432" smooth="yes"/>
      <point x="460" y="473" smooth="yes"/>
      <point x="529" y="473" type="curve" smooth="yes"/>
      <point x="549" y="473"/>
      <point x="568" y="470"/>
      <point x="586" y="463" type="curve"/>
      <point x="586" y="241" type="line"/>
      <point x="563" y="218" smooth="yes"/>
      <point x="538" y="206" smooth="yes"/>
    </contour>
  </outline>
</glyph>
<glyph name="A" format="1">
  <advance width="642"/>
  <unicode hex="0041"/>
  <outline>
    <contour>
      <point x="233" y="730" type="line" name="hr00"/>
      <point x="8" y="0" type="line"/>
      <point x="140" y="0" type="line"/>
      <point x="201" y="202" type="line"/>
      <point x="441" y="202" type="line"/>
      <point x="503" y="0" type="line"/>
      <point x="634" y="0" type="line"/>
      <point x="410" y="730" type="line"/>
    </contour>
    <contour>
      <point x="321" y="601" type="line"/>
      <point x="410" y="305" type="line"/>
      <point x="232" y="305" type="line"/>
    </contour>
  </outline>
</glyph>
<glyph name="B" format="1">
  <advance width="625"/>
  <unicode hex="0042"/>
  <outline>
    <contour>
      <point x="94" y="0" type="line"/>
      <point x="358" y="0" type="line" smooth="yes"/>
      <point x="507" y="0" smooth="yes"/>
      <point x="591" y="71" smooth="yes"/>
      <point x="591" y="195" type="curve" smooth="yes"/>
      <point x="591" y="285"/>
      <point x="540" y="352"/>
      <point x="452" y="377" type="curve" name="hr01"/>
      <point x="523" y="404" smooth="yes"/>
      <point x="559" y="460" smooth="yes"/>
      <point x="559" y="543" type="curve" smooth="yes"/>
      <point x="559" y="662" smooth="yes"/>
      <point x="473" y="730" smooth="yes"/>
      <point x="324" y="730" type="curve" smooth="yes"/>
      <point x="94" y="730" type="line"/>
    </contour>
    <contour>
      <point x="230" y="105" type="line"/>
      <point x="230" y="321" type="line"/>
      <point x="350" y="321" type="line" smooth="yes"/>
      <point x="418" y="321" smooth="yes"/>
      <point x="455" y="282" smooth="yes"/>
      <point x="455" y="212" type="curve" smooth="yes" name="hr02"/>
      <point x="455" y="144" smooth="yes"/>
      <point x="417" y="105" smooth="yes"/>
      <point x="350" y="105" type="curve" smooth="yes"/>
    </contour>
    <contour>
      <point x="230" y="425" type="line"/>
      <point x="230" y="625" type="line"/>
      <point x="322" y="625" type="line" smooth="yes"/>
      <point x="385" y="625" smooth="yes"/>
      <point x="423" y="587" smooth="yes"/>
      <point x="423" y="524" type="curve" smooth="yes" name="hr03"/>
      <point x="423" y="462" smooth="yes"/>
      <point x="385" y="425" smooth="yes"/>
      <point x="322" y="425" type="curve" smooth="yes"/>
    </contour>
  </outline>
</glyph>
<glyph name="C" format="1">
  <advance width="626"/>
  <unicode hex="0043"/>
  <outline>
    <contour>
      <point x="352" y="-14" type="curve" name="hr00"/>
      <point x="514" y="-14"/>
      <point x="586" y="62"/>
      <point x="598" y="247" type="curve"/>
      <point x="488" y="252" type="line"/>
      <point x="485" y="145" smooth="yes"/>
      <point x="443" y="96" smooth="yes"/>
      <point x="352" y="96" type="curve" smooth="yes"/>
      <point x="232" y="96" smooth="yes"/>
      <point x="192" y="163" smooth="yes"/>
      <point x="192" y="365" type="curve" smooth="yes"/>
      <point x="192" y="567" smooth="yes"/>
      <point x="232" y="634" smooth="yes"/>
      <point x="352" y="634" type="curve" smooth="yes"/>
      <point x="433" y="634"/>
      <point x="475" y="595"/>
      <point x="485" y="510" type="curve"/>
      <point x="595" y="527" type="line"/>
      <point x="577" y="679" smooth="yes"/>
      <point x="505" y="744" smooth="yes"/>
      <point x="352" y="744" type="curve" smooth="yes"/>
      <point x="140" y="744" smooth="yes"/>
      <point x="56" y="636" smooth="yes"/>
      <point x="56" y="365" type="curve" smooth="yes"/>
      <point x="56" y="94" smooth="yes"/>
      <point x="140" y="-14" smooth="yes"/>
    </contour>
  </outline>
</glyph>
<glyph name="E" format="1">
  <advance width="560"/>
  <unicode hex="0045"/>
  <outline>
    <contour>
      <point x="94" y="730" type="line" name="hr00"/>
      <point x="94" y="0" type="line"/>
      <point x="526" y="0" type="line"/>
      <point x="526" y="105" type="line"/>
      <point x="230" y="105" type="line"/>
      <point x="230" y="319" type="line"/>
      <point x="481" y="319" type="line"/>
      <point x="481" y="423" type="line"/>
      <point x="230" y="423" type="line"/>
      <point x="230" y="625" type="line"/>
      <point x="506" y="625" type="line"/>
      <point x="506" y="730" type="line"/>
    </contour>
  </outline>
</glyph>
<glyph name="F" format="1">
  <advance width="512"/>
  <unicode hex="0046"/>
  <outline>
    <contour>
      <point x="94" y="730" type="line" name="hr00"/>
      <point x="94" y="0" type="line"/>
      <point x="230" y="0" type="line"/>
      <point x="230" y="319" type="line"/>
      <point x="453" y="319" type="line"/>
      <point x="453" y="423" type="line"/>
      <point x="230" y="423" type="line"/>
      <point x="230" y="625" type="line"/>
      <point x="486" y="625" type="line"/>
      <point x="486" y="730" type="line"/>
    </contour>
  </outline>
</glyph>
<glyph name="G" format="1">
  <advance width="695"/>
  <unicode hex="0047"/>
  <outline>
    <contour>
      <point x="340" y="-14" type="curve"/>
      <point x="416" y="-14"/>
      <point x="477" y="16"/>
      <point x="520" y="73" type="curve"/>
      <point x="543" y="0" type="line"/>
      <point x="611" y="0" type="line"/>
      <point x="611" y="373" type="line"/>
      <point x="382" y="373" type="line"/>
      <point x="382" y="286" type="line"/>
      <point x="494" y="286" type="line"/>
      <point x="494" y="252" type="line" smooth="yes"/>
      <point x="492" y="146" smooth="yes"/>
      <point x="445" y="96" smooth="yes"/>
      <point x="348" y="96" type="curve" smooth="yes"/>
      <point x="234" y="96" smooth="yes"/>
      <point x="192" y="168" smooth="yes"/>
      <point x="192" y="365" type="curve" smooth="yes"/>
      <point x="192" y="567" smooth="yes"/>
      <point x="232" y="634" smooth="yes"/>
      <point x="352" y="634" type="curve" smooth="yes"/>
      <point x="433" y="634"/>
      <point x="475" y="595"/>
      <point x="485" y="510" type="curve" name="hr01"/>
      <point x="595" y="527" type="line"/>
      <point x="577" y="679" smooth="yes"/>
      <point x="505" y="744" smooth="yes"/>
      <point x="352" y="744" type="curve" smooth="yes"/>
      <point x="140" y="744" smooth="yes"/>
      <point x="56" y="636" smooth="yes"/>
      <point x="56" y="365" type="curve" smooth="yes"/>
      <point x="56" y="97" smooth="yes"/>
      <point x="139" y="-14" smooth="yes"/>
    </contour>
  </outline>
</glyph>
<glyph name="H" format="1">
  <advance width="730"/>
  <unicode hex="0048"/>
  <outline>
    <contour>
      <point x="500" y="730" type="line" name="hr00"/>
      <point x="500" y="417" type="line"/>
      <point x="230" y="417" type="line"/>
      <point x="230" y="730" type="line"/>
      <point x="94" y="730" type="line"/>
      <point x="94" y="0" type="line"/>
      <point x="230" y="0" type="line"/>
      <point x="230" y="313" type="line"/>
      <point x="500" y="313" type="line"/>
      <point x="500" y="0" type="line"/>
      <point x="636" y="0" type="line"/>
      <point x="636" y="730" type="line"/>
    </contour>
  </outline>
</glyph>
<glyph name="I" format="1">
  <advance width="324"/>
  <unicode hex="0049"/>
  <outline>
    <contour>
      <point x="94" y="730" type="line" name="hr00"/>
      <point x="94" y="0" type="line"/>
      <point x="230" y="0" type="line"/>
      <point x="230" y="730" type="line"/>
    </contour>
  </outline>
</glyph>
<glyph name="M" format="1">
  <advance width="885"/>
  <unicode hex="004D"/>
  <outline>
    <contour>
      <point x="592" y="730" type="line" name="hr00"/>
      <point x="436" y="269" type="line"/>
      <point x="293" y="730" type="line"/>
      <point x="102" y="730" type="line"/>
      <point x="84" y="0" type="line"/>
      <point x="218" y="0" type="line"/>
      <point x="228" y="546" type="line"/>
      <point x="375" y="87" type="line"/>
      <point x="493" y="87" type="line"/>
      <point x="656" y="562" type="line"/>
      <point x="667" y="0" type="line"/>
      <point x="801" y="0" type="line"/>
      <point x="782" y="730" type="line"/>
    </contour>
  </outline>
</glyph>
<glyph name="N" format="1">
  <advance width="757"/>
  <unicode hex="004E"/>
  <outline>
    <contour>
      <point x="527" y="730" type="line" name="hr00"/>
      <point x="527" y="233" type="line"/>
      <point x="238" y="730" type="line"/>
      <point x="94" y="730" type="line"/>
      <point x="94" y="0" type="line"/>
      <point x="230" y="0" type="line"/>
      <point x="230" y="496" type="line"/>
      <point x="519" y="0" type="line"/>
      <point x="663" y="0" type="line"/>
      <point x="663" y="730" type="line"/>
    </contour>
  </outline>
</glyph>
<glyph name="O" format="1">
  <advance width="709"/>
  <unicode hex="004F"/>
  <outline>
    <contour>
      <point x="354" y="-14" type="curve" smooth="yes" name="hr00"/>
      <point x="559" y="-14" smooth="yes"/>
      <point x="653" y="105" smooth="yes"/>
      <point x="653" y="365" type="curve" smooth="yes"/>
      <point x="653" y="624" smooth="yes"/>
      <point x="558" y="744" smooth="yes"/>
      <point x="354" y="744" type="curve" smooth="yes"/>
      <point x="150" y="744" smooth="yes"/>
      <point x="56" y="625" smooth="yes"/>
      <point x="56" y="365" type="curve" smooth="yes"/>
      <point x="56" y="104" smooth="yes"/>
      <point x="149" y="-14" smooth="yes"/>
    </contour>
    <contour>
      <point x="354" y="96" type="curve" smooth="yes"/>
      <point x="243" y="96" smooth="yes"/>
      <point x="192" y="180" smooth="yes"/>
      <point x="192" y="365" type="curve" smooth="yes"/>
      <point x="192" y="550" smooth="yes"/>
      <point x="243" y="634" smooth="yes"/>
      <point x="354" y="634" type="curve" smooth="yes"/>
      <point x="465" y="634" smooth="yes"/>
      <point x="517" y="549" smooth="yes"/>
      <point x="517" y="365" type="curve" smooth="yes"/>
      <point x="517" y="181" smooth="yes"/>
      <point x="465" y="96" smooth="yes"/>
    </contour>
  </outline>
</glyph>
<glyph name="P" format="1">
  <advance width="597"/>
  <unicode hex="0050"/>
  <outline>
    <contour>
      <point x="94" y="0" type="line" name="hr00"/>
      <point x="230" y="0" type="line"/>
      <point x="230" y="259" type="line"/>
      <point x="346" y="259" type="line" smooth="yes"/>
      <point x="497" y="259" smooth="yes"/>
      <point x="579" y="341" smooth="yes"/>
      <point x="579" y="494" type="curve" smooth="yes"/>
      <point x="579" y="648" smooth="yes"/>
      <point x="498" y="730" smooth="yes"/>
      <point x="346" y="730" type="curve" smooth="yes"/>
      <point x="94" y="730" type="line"/>
    </contour>
    <contour>
      <point x="230" y="364" type="line"/>
      <point x="230" y="625" type="line"/>
      <point x="325" y="625" type="line" smooth="yes"/>
      <point x="404" y="625" smooth="yes"/>
      <point x="443" y="582" smooth="yes"/>
      <point x="443" y="494" type="curve" smooth="yes"/>
      <point x="443" y="407" smooth="yes"/>
      <point x="404" y="364" smooth="yes"/>
      <point x="325" y="364" type="curve" smooth="yes"/>
    </contour>
  </outline>
</glyph>
<glyph name="Q" format="1">
  <advance width="699"/>
  <unicode hex="0051"/>
  <outline>
    <contour>
      <point x="585" y="-144" type="line" name="hr00"/>
      <point x="639" y="-39" type="line"/>
      <point x="507" y="17" type="line"/>
      <point x="613" y="72" smooth="yes"/>
      <point x="643" y="193" smooth="yes"/>
      <point x="643" y="365" type="curve" smooth="yes"/>
      <point x="643" y="600" smooth="yes"/>
      <point x="587" y="744" smooth="yes"/>
      <point x="349" y="744" type="curve" smooth="yes"/>
      <point x="111" y="744" smooth="yes"/>
      <point x="56" y="600" smooth="yes"/>
      <point x="56" y="365" type="curve" smooth="yes"/>
      <point x="56" y="137"/>
      <point x="106" y="-2"/>
      <point x="321" y="-13" type="curve"/>
    </contour>
    <contour>
      <point x="349" y="96" type="curve" smooth="yes"/>
      <point x="221" y="96" smooth="yes"/>
      <point x="192" y="198" smooth="yes"/>
      <point x="192" y="365" type="curve" smooth="yes"/>
      <point x="192" y="532" smooth="yes"/>
      <point x="221" y="634" smooth="yes"/>
      <point x="349" y="634" type="curve" smooth="yes"/>
      <point x="477" y="634" smooth="yes"/>
      <point x="507" y="532" smooth="yes"/>
      <point x="507" y="365" type="curve" smooth="yes"/>
      <point x="507" y="198" smooth="yes"/>
      <point x="477" y="96" smooth="yes"/>
    </contour>
  </outline>
</glyph>
<glyph name="U" format="1">
  <advance width="703"/>
  <unicode hex="0055"/>
  <outline>
    <contour>
      <point x="351" y="-14" type="curve" name="hr00"/>
      <point x="538" y="-14" smooth="yes"/>
      <point x="624" y="66" smooth="yes"/>
      <point x="624" y="241" type="curve" smooth="yes"/>
      <point x="624" y="730" type="line"/>
      <point x="488" y="730" type="line"/>
      <point x="488" y="251" type="line" smooth="yes"/>
      <point x="488" y="143" smooth="yes"/>
      <point x="447" y="97" smooth="yes"/>
      <point x="351" y="97" type="curve" smooth="yes"/>
      <point x="256" y="97" smooth="yes"/>
      <point x="215" y="143" smooth="yes"/>
      <point x="215" y="251" type="curve" smooth="yes"/>
      <point x="215" y="730" type="line"/>
      <point x="79" y="730" type="line"/>
      <point x="79" y="241" type="line" smooth="yes"/>
      <point x="79" y="66" smooth="yes"/>
      <point x="164" y="-14" smooth="yes"/>
    </contour>
  </outline>
</glyph>
<glyph name="V" format="1">
  <advance width="629"/>
  <unicode hex="0056"/>
  <outline>
    <contour>
      <point x="402" y="0" type="line" name="hr00"/>
      <point x="619" y="730" type="line"/>
      <point x="482" y="730" type="line"/>
      <point x="314" y="132" type="line"/>
      <point x="146" y="730" type="line"/>
      <point x="10" y="730" type="line"/>
      <point x="226" y="0" type="line"/>
    </contour>
  </outline>
</glyph>
<glyph name="Z" format="1">
  <advance width="562"/>
  <unicode hex="005A"/>
  <outline>
    <contour>
      <point x="42" y="625" type="line" name="hr00"/>
      <point x="367" y="625" type="line"/>
      <point x="22" y="86" type="line"/>
      <point x="22" y="0" type="line"/>
      <point x="540" y="0" type="line"/>
      <point x="540" y="105" type="line"/>
      <point x="185" y="105" type="line"/>
      <point x="530" y="644" type="line"/>
      <point x="530" y="730" type="line"/>
      <point x="42" y="730" type="line"/>
    </contour>
  </outline>
</glyph>
<glyph name="bracketleft" format="1">
  <advance width="328"/>
  <unicode hex="005B"/>
  <outline>
    <contour>
      <point x="72" y="-66" type="line" name="hr00"/>
      <point x="319" y="-66" type="line"/>
      <point x="319" y="26" type="line"/>
      <point x="209" y="26" type="line"/>
      <point x="209" y="643" type="line"/>
      <point x="319" y="643" type="line"/>
      <point x="319" y="735" type="line"/>
      <point x="72" y="735" type="line"/>
    </contour>
  </outline>
</glyph>
<glyph name="bracketright" format="1">
  <advance width="328"/>
  <unicode hex="005D"/>
  <outline>
    <contour>
      <point x="256" y="735" type="line" name="hr00"/>
      <point x="9" y="735" type="line"/>
      <point x="9" y="643" type="line"/>
      <point x="119" y="643" type="line"/>
      <point x="119" y="26" type="line"/>
      <point x="9" y="26" type="line"/>
      <point x="9" y="-66" type="line"/>
      <point x="256" y="-66" type="line"/>
    </contour>
  </outline>
</glyph>
<glyph name="asciicircum" format="1">
  <advance width="580"/>
  <unicode hex="005E"/>
  <outline>
    <contour>
      <point x="232" y="618" type="line" name="hr00"/>
      <point x="80" y="316" type="line"/>
      <point x="182" y="316" type="line"/>
      <point x="290" y="545" type="line"/>
      <point x="398" y="316" type="line"/>
      <point x="500" y="316" type="line"/>
      <point x="348" y="618" type="line"/>
    </contour>
  </outline>
</glyph>
<glyph name="a" format="1">
  <advance width="597"/>
  <unicode hex="0061"/>
  <outline>
    <contour>
      <point x="201" y="-14" type="curve"/>
      <point x="268" y="-14"/>
      <point x="338" y="17"/>
      <point x="388" y="70" type="curve"/>
      <point x="426" y="0" type="line"/>
      <point x="513" y="0" type="line"/>
      <point x="513" y="387" type="line" smooth="yes"/>
      <point x="513" y="519" smooth="yes"/>
      <point x="440" y="586" smooth="yes"/>
      <point x="295" y="586" type="curve" smooth="yes"/>
      <point x="176" y="586"/>
      <point x="106" y="534"/>
      <point x="80" y="426" type="curve"/>
      <point x="184" y="395" type="line"/>
      <point x="194" y="452" smooth="yes"/>
      <point x="230" y="483" smooth="yes"/>
      <point x="287" y="483" type="curve" smooth="yes" name="hr01"/>
      <point x="348" y="483" smooth="yes"/>
      <point x="379" y="451" smooth="yes"/>
      <point x="379" y="386" type="curve" smooth="yes"/>
      <point x="379" y="338" type="line"/>
      <point x="259" y="320" type="line" smooth="yes"/>
      <point x="107" y="297" smooth="yes"/>
      <point x="46" y="246" smooth="yes"/>
      <point x="46" y="139" type="curve" smooth="yes"/>
      <point x="46" y="44" smooth="yes"/>
      <point x="104" y="-14" smooth="yes"/>
    </contour>
    <contour>
      <point x="244" y="84" type="curve" smooth="yes"/>
      <point x="202" y="84" smooth="yes"/>
      <point x="176" y="108" smooth="yes"/>
      <point x="176" y="145" type="curve" smooth="yes"/>
      <point x="176" y="196" smooth="yes"/>
      <point x="210" y="225" smooth="yes"/>
      <point x="283" y="237" type="curve" smooth="yes"/>
      <point x="379" y="254" type="line"/>
      <point x="379" y="151" type="line"/>
      <point x="334" y="106" smooth="yes"/>
      <point x="290" y="84" smooth="yes"/>
    </contour>
  </outline>
</glyph>
<glyph name="b" format="1">
  <advance width="628"/>
  <unicode hex="0062"/>
  <outline>
    <contour>
      <point x="362" y="-14" type="curve" smooth="yes"/>
      <point x="514" y="-14" smooth="yes"/>
      <point x="592" y="87" smooth="yes"/>
      <point x="592" y="286" type="curve" smooth="yes"/>
      <point x="592" y="485" smooth="yes"/>
      <point x="514" y="586" smooth="yes"/>
      <point x="362" y="586" type="curve" smooth="yes"/>
      <point x="318" y="586"/>
      <point x="272" y="576"/>
      <point x="228" y="558" type="curve"/>
      <point x="228" y="762" type="line"/>
      <point x="94" y="752" type="line"/>
      <point x="94" y="0" type="line" name="hr01"/>
      <point x="158" y="0" type="line"/>
      <point x="189" y="38" type="line"/>
      <point x="241" y="5" smooth="yes"/>
      <point x="304" y="-14" smooth="yes"/>
    </contour>
    <contour>
      <point x="322" y="89" type="curve"/>
      <point x="288" y="89"/>
      <point x="256" y="97"/>
      <point x="228" y="112" type="curve"/>
      <point x="228" y="463" type="line"/>
      <point x="260" y="476" smooth="yes"/>
      <point x="293" y="483" smooth="yes"/>
      <point x="325" y="483" type="curve" smooth="yes"/>
      <point x="412" y="483" smooth="yes"/>
      <point x="458" y="414" smooth="yes"/>
      <point x="458" y="286" type="curve" smooth="yes"/>
      <point x="458" y="154" smooth="yes"/>
      <point x="413" y="89" smooth="yes"/>
    </contour>
  </outline>
</glyph>
<glyph name="d" format="1">
  <advance width="628"/>
  <unicode hex="0064"/>
  <outline>
    <contour>
      <point x="229" y="-14" type="curve"/>
      <point x="292" y="-14"/>
      <point x="355" y="16"/>
      <point x="410" y="71" type="curve"/>
      <point x="447" y="0" type="line"/>
      <point x="534" y="0" type="line"/>
      <point x="534" y="762" type="line"/>
      <point x="400" y="752" type="line"/>
      <point x="400" y="562" type="line"/>
      <point x="358" y="578" smooth="yes"/>
      <point x="313" y="586" smooth="yes"/>
      <point x="270" y="586" type="curve" smooth="yes" name="hr01"/>
      <point x="115" y="586" smooth="yes"/>
      <point x="36" y="485" smooth="yes"/>
      <point x="36" y="286" type="curve" smooth="yes"/>
      <point x="36" y="86" smooth="yes"/>
      <point x="101" y="-14" smooth="yes"/>
    </contour>
    <contour>
      <point x="282" y="89" type="curve" smooth="yes"/>
      <point x="208" y="89" smooth="yes"/>
      <point x="170" y="157" smooth="yes"/>
      <point x="170" y="286" type="curve" smooth="yes"/>
      <point x="170" y="421" smooth="yes"/>
      <point x="212" y="483" smooth="yes"/>
      <point x="304" y="483" type="curve" smooth="yes"/>
      <point x="335" y="483"/>
      <point x="366" y="477"/>
      <point x="400" y="463" type="curve"/>
      <point x="400" y="153" type="line"/>
      <point x="362" y="110" smooth="yes"/>
      <point x="323" y="89" smooth="yes"/>
    </contour>
  </outline>
</glyph>
<glyph name="e" format="1">
  <advance width="563"/>
  <unicode hex="0065"/>
  <outline>
    <contour>
      <point x="292" y="-14" type="curve" smooth="yes" name="hr00"/>
      <point x="436" y="-14"/>
      <point x="513" y="45"/>
      <point x="524" y="165" type="curve"/>
      <point x="414" y="169" type="line"/>
      <point x="409" y="115" smooth="yes"/>
      <point x="370" y="89" smooth="yes"/>
      <point x="296" y="89" type="curve" smooth="yes"/>
      <point x="203" y="89"/>
      <point x="167" y="136"/>
      <point x="166" y="260" type="curve"/>
      <point x="532" y="260" type="line"/>
      <point x="532" y="296" type="line" smooth="yes"/>
      <point x="532" y="491" smooth="yes"/>
      <point x="452" y="586" smooth="yes"/>
      <point x="288" y="586" type="curve" smooth="yes"/>
      <point x="121" y="586" smooth="yes"/>
      <point x="36" y="485" smooth="yes"/>
      <point x="36" y="286" type="curve" smooth="yes"/>
      <point x="36" y="78" smooth="yes"/>
      <point x="114" y="-14" smooth="yes"/>
    </contour>
    <contour>
      <point x="169" y="351" type="line"/>
      <point x="179" y="445" smooth="yes"/>
      <point x="213" y="483" smooth="yes"/>
      <point x="287" y="483" type="curve" smooth="yes"/>
      <point x="359" y="483"/>
      <point x="392" y="445"/>
      <point x="400" y="351" type="curve"/>
    </contour>
  </outline>
</glyph>
<glyph name="f" format="1">
  <advance width="351"/>
  <unicode hex="0066"/>
  <outline>
    <contour>
      <point x="106" y="0" type="line" name="hr00"/>
      <point x="240" y="0" type="line"/>
      <point x="240" y="485" type="line"/>
      <point x="348" y="485" type="line"/>
      <point x="348" y="572" type="line"/>
      <point x="240" y="572" type="line"/>
      <point x="240" y="611" type="line" smooth="yes"/>
      <point x="240" y="651" smooth="yes"/>
      <point x="257" y="670" smooth="yes"/>
      <point x="293" y="670" type="curve" smooth="yes"/>
      <point x="315" y="670"/>
      <point x="336" y="666"/>
      <point x="360" y="656" type="curve"/>
      <point x="393" y="757" type="line"/>
      <point x="357" y="770" smooth="yes"/>
      <point x="325" y="775" smooth="yes"/>
      <point x="279" y="775" type="curve" smooth="yes"/>
      <point x="165" y="775" smooth="yes"/>
      <point x="106" y="719" smooth="yes"/>
      <point x="106" y="611" type="curve" smooth="yes"/>
      <point x="106" y="572" type="line"/>
      <point x="44" y="572" type="line"/>
      <point x="44" y="485" type="line"/>
      <point x="106" y="485" type="line"/>
    </contour>
  </outline>
</glyph>
<glyph name="g" format="1">
  <advance width="578"/>
  <unicode hex="0067"/>
  <outline>
    <contour>
      <point x="269" y="-217" type="curve"/>
      <point x="465" y="-217" smooth="yes"/>
      <point x="556" y="-166" smooth="yes"/>
      <point x="556" y="-55" type="curve" smooth="yes"/>
      <point x="556" y="35" smooth="yes"/>
      <point x="487" y="96" smooth="yes"/>
      <point x="386" y="96" type="curve" smooth="yes"/>
      <point x="173" y="96" type="line" smooth="yes"/>
      <point x="151" y="96" smooth="yes"/>
      <point x="140" y="104" smooth="yes"/>
      <point x="140" y="120" type="curve" smooth="yes"/>
      <point x="140" y="129" smooth="yes"/>
      <point x="148" y="144" smooth="yes"/>
      <point x="157" y="153" type="curve" smooth="yes"/>
      <point x="185" y="183" type="line" name="hr01"/>
      <point x="213" y="173" smooth="yes"/>
      <point x="247" y="168" smooth="yes"/>
      <point x="288" y="168" type="curve" smooth="yes"/>
      <point x="433" y="168" smooth="yes"/>
      <point x="515" y="243" smooth="yes"/>
      <point x="515" y="377" type="curve" smooth="yes"/>
      <point x="515" y="421"/>
      <point x="506" y="461"/>
      <point x="488" y="493" type="curve"/>
      <point x="554" y="493" type="line" name="hr02"/>
      <point x="554" y="572" type="line"/>
      <point x="387" y="572" type="line"/>
      <point x="359" y="581" smooth="yes"/>
      <point x="326" y="586" smooth="yes"/>
      <point x="288" y="586" type="curve" smooth="yes"/>
      <point x="144" y="586" smooth="yes"/>
      <point x="62" y="511" smooth="yes"/>
      <point x="62" y="377" type="curve" smooth="yes"/>
      <point x="62" y="316"/>
      <point x="78" y="266"/>
      <point x="109" y="231" type="curve"/>
      <point x="63" y="183" type="line" smooth="yes"/>
      <point x="40" y="158" smooth="yes"/>
      <point x="27" y="128" smooth="yes"/>
      <point x="27" y="98" type="curve" smooth="yes"/>
      <point x="27" y="51"/>
      <point x="48" y="21"/>
      <point x="88" y="9" type="curve"/>
      <point x="47" y="-12" smooth="yes"/>
      <point x="22" y="-51" smooth="yes"/>
      <point x="22" y="-91" type="curve" smooth="yes"/>
      <point x="22" y="-177" smooth="yes"/>
      <point x="99" y="-217" smooth="yes"/>
    </contour>
    <contour>
      <point x="280" y="-117" type="curve" smooth="yes"/>
      <point x="178" y="-117" smooth="yes"/>
      <point x="144" y="-104" smooth="yes"/>
      <point x="144" y="-65" type="curve" smooth="yes" name="hr03"/>
      <point x="144" y="-41"/>
      <point x="155" y="-17"/>
      <point x="173" y="0" type="curve"/>
      <point x="344" y="0" type="line" smooth="yes"/>
      <point x="394" y="0" smooth="yes"/>
      <point x="422" y="-20" smooth="yes"/>
      <point x="422" y="-56" type="curve" smooth="yes"/>
      <point x="422" y="-104" smooth="yes"/>
      <point x="391" y="-117" smooth="yes"/>
    </contour>
    <contour>
      <point x="288" y="257" type="curve" smooth="yes" name="hr04"/>
      <point x="222" y="257" smooth="yes"/>
      <point x="190" y="297" smooth="yes"/>
      <point x="190" y="377" type="curve" smooth="yes"/>
      <point x="190" y="457" smooth="yes"/>
      <point x="222" y="497" smooth="yes"/>
      <point x="288" y="497" type="curve" smooth="yes"/>
      <point x="354" y="497" smooth="yes"/>
      <point x="387" y="457" smooth="yes"/>
      <point x="387" y="377" type="curve" smooth="yes"/>
      <point x="387" y="297" smooth="yes"/>
      <point x="354" y="257" smooth="yes"/>
    </contour>
  </outline>
</glyph>
<glyph name="i" format="1">
  <advance width="322"/>
  <unicode hex="0069"/>
  <outline>
    <contour>
      <point x="161" y="640" type="curve" smooth="yes" name="hr00"/>
      <point x="212" y="640" smooth="yes"/>
      <point x="238" y="666" smooth="yes"/>
      <point x="238" y="717" type="curve" smooth="yes"/>
      <point x="238" y="769" smooth="yes"/>
      <point x="212" y="795" smooth="yes"/>
      <point x="161" y="795" type="curve" smooth="yes"/>
      <point x="111" y="795" smooth="yes"/>
      <point x="86" y="769" smooth="yes"/>
      <point x="86" y="717" type="curve" smooth="yes"/>
      <point x="86" y="666" smooth="yes"/>
      <point x="111" y="640" smooth="yes"/>
    </contour>
    <contour>
      <point x="94" y="0" type="line"/>
      <point x="228" y="0" type="line"/>
      <point x="228" y="572" type="line"/>
      <point x="94" y="572" type="line"/>
    </contour>
  </outline>
</glyph>
<glyph name="l" format="1">
  <advance width="322"/>
  <unicode hex="006C"/>
  <outline>
    <contour>
      <point x="94" y="752" type="line" name="hr00"/>
      <point x="94" y="0" type="line"/>
      <point x="228" y="0" type="line"/>
      <point x="228" y="770" type="line"/>
    </contour>
  </outline>
</glyph>
<glyph name="p" format="1">
  <advance width="628"/>
  <unicode hex="0070"/>
  <outline>
    <contour>
      <point x="94" y="-223" type="line"/>
      <point x="228" y="-205" type="line"/>
      <point x="228" y="6" type="line"/>
      <point x="272" y="-7" smooth="yes"/>
      <point x="320" y="-14" smooth="yes"/>
      <point x="358" y="-14" type="curve" smooth="yes"/>
      <point x="513" y="-14" smooth="yes"/>
      <point x="592" y="87" smooth="yes"/>
      <point x="592" y="286" type="curve" smooth="yes"/>
      <point x="592" y="485" smooth="yes"/>
      <point x="514" y="586" smooth="yes"/>
      <point x="362" y="586" type="curve" smooth="yes"/>
      <point x="308" y="586"/>
      <point x="247" y="565"/>
      <point x="193" y="529" type="curve"/>
      <point x="158" y="572" type="line" name="hr01"/>
      <point x="94" y="572" type="line"/>
    </contour>
    <contour>
      <point x="324" y="89" type="curve" name="hr03"/>
      <point x="290" y="89"/>
      <point x="260" y="93"/>
      <point x="228" y="103" type="curve"/>
      <point x="228" y="455" type="line"/>
      <point x="258" y="473" smooth="yes"/>
      <point x="291" y="483" smooth="yes"/>
      <point x="325" y="483" type="curve" smooth="yes"/>
      <point x="412" y="483" smooth="yes"/>
      <point x="458" y="415" smooth="yes"/>
      <point x="458" y="286" type="curve" smooth="yes"/>
      <point x="458" y="151" smooth="yes"/>
      <point x="416" y="89" smooth="yes"/>
    </contour>
  </outline>
</glyph>
<glyph name="q" format="1">
  <advance width="628"/>
  <unicode hex="0071"/>
  <outline>
    <contour>
      <point x="400" y="-223" type="line"/>
      <point x="534" y="-205" type="line"/>
      <point x="534" y="572" type="line"/>
      <point x="471" y="572" type="line"/>
      <point x="439" y="534" type="line"/>
      <point x="398" y="562" smooth="yes"/>
      <point x="341" y="586" smooth="yes"/>
      <point x="269" y="586" type="curve" smooth="yes"/>
      <point x="80" y="586" smooth="yes"/>
      <point x="36" y="441" smooth="yes"/>
      <point x="36" y="286" type="curve" smooth="yes" name="hr01"/>
      <point x="36" y="131" smooth="yes"/>
      <point x="80" y="-14" smooth="yes"/>
      <point x="269" y="-14" type="curve" smooth="yes"/>
      <point x="314" y="-14"/>
      <point x="359" y="-3"/>
      <point x="400" y="12" type="curve"/>
    </contour>
    <contour>
      <point x="305" y="89" type="curve" smooth="yes" name="hr02"/>
      <point x="205" y="89" smooth="yes"/>
      <point x="170" y="167" smooth="yes"/>
      <point x="170" y="286" type="curve" smooth="yes"/>
      <point x="170" y="401" smooth="yes"/>
      <point x="206" y="483" smooth="yes"/>
      <point x="305" y="483" type="curve" smooth="yes"/>
      <point x="338" y="483"/>
      <point x="369" y="476"/>
      <point x="400" y="459" type="curve"/>
      <point x="400" y="107" type="line"/>
      <point x="369" y="95" smooth="yes"/>
      <point x="337" y="89" smooth="yes"/>
    </contour>
  </outline>
</glyph>
<glyph name="u" format="1">
  <advance width="664"/>
  <unicode hex="0075"/>
  <outline>
    <contour>
      <point x="260" y="-14" type="curve"/>
      <point x="332" y="-14"/>
      <point x="393" y="13"/>
      <point x="445" y="69" type="curve"/>
      <point x="483" y="0" type="line"/>
      <point x="570" y="0" type="line"/>
      <point x="570" y="572" type="line"/>
      <point x="436" y="572" type="line" name="hr01"/>
      <point x="436" y="153" type="line"/>
      <point x="396" y="111" smooth="yes"/>
      <point x="352" y="89" smooth="yes"/>
      <point x="307" y="89" type="curve" smooth="yes"/>
      <point x="245" y="89" smooth="yes"/>
      <point x="218" y="119" smooth="yes"/>
      <point x="218" y="190" type="curve" smooth="yes"/>
      <point x="218" y="572" type="line"/>
      <point x="84" y="572" type="line" name="hr02"/>
      <point x="84" y="168" type="line" smooth="yes"/>
      <point x="84" y="47" smooth="yes"/>
      <point x="143" y="-14" smooth="yes"/>
    </contour>
  </outline>
</glyph>
<glyph name="x" format="1">
  <advance width="530"/>
  <unicode hex="0078"/>
  <outline>
    <contour>
      <point x="137" y="0" type="line" name="hr00"/>
      <point x="261" y="184" type="line"/>
      <point x="381" y="0" type="line"/>
      <point x="528" y="0" type="line"/>
      <point x="337" y="294" type="line"/>
      <point x="519" y="572" type="line"/>
      <point x="384" y="572" type="line"/>
      <point x="270" y="398" type="line"/>
      <point x="158" y="572" type="line"/>
      <point x="11" y="572" type="line"/>
      <point x="195" y="287" type="line"/>
      <point x="2" y="0" type="line"/>
    </contour>
  </outline>
</glyph>
<glyph name="y" format="1">
  <advance width="542"/>
  <unicode hex="0079"/>
  <outline>
    <contour>
      <point x="251" y="-237" type="line" name="hr00"/>
      <point x="537" y="572" type="line"/>
      <point x="400" y="572" type="line"/>
      <point x="276" y="174" type="line"/>
      <point x="139" y="572" type="line"/>
      <point x="4" y="572" type="line"/>
      <point x="213" y="-8" type="line"/>
      <point x="132" y="-219" type="line"/>
    </contour>
  </outline>
</glyph>
<glyph name="z" format="1">
  <advance width="509"/>
  <unicode hex="007A"/>
  <outline>
    <contour>
      <point x="43" y="478" type="line" name="hr00"/>
      <point x="309" y="478" type="line"/>
      <point x="33" y="82" type="line"/>
      <point x="33" y="0" type="line"/>
      <point x="476" y="0" type="line"/>
      <point x="476" y="94" type="line"/>
      <point x="193" y="94" type="line"/>
      <point x="467" y="490" type="line"/>
      <point x="467" y="572" type="line"/>
      <point x="43" y="572" type="line"/>
    </contour>
  </outline>
</glyph>
<glyph name="braceleft" format="1">
  <advance width="329"/>
  <unicode hex="007B"/>
  <outline>
    <contour>
      <point x="320" y="-66" type="curve" name="hr00"/>
      <point x="320" y="28" type="line"/>
      <point x="245" y="28" smooth="yes"/>
      <point x="209" y="72" smooth="yes"/>
      <point x="209" y="164" type="curve" smooth="yes"/>
      <point x="209" y="211" smooth="yes"/>
      <point x="217" y="238" smooth="yes"/>
      <point x="217" y="277" type="curve" smooth="yes"/>
      <point x="217" y="312"/>
      <point x="196" y="338"/>
      <point x="168" y="338" type="curve"/>
      <point x="168" y="343" type="line"/>
      <point x="196" y="343" smooth="yes"/>
      <point x="217" y="369" smooth="yes"/>
      <point x="217" y="404" type="curve" smooth="yes"/>
      <point x="217" y="441" smooth="yes"/>
      <point x="209" y="467" smooth="yes"/>
      <point x="209" y="512" type="curve" smooth="yes"/>
      <point x="209" y="599"/>
      <point x="245" y="642"/>
      <point x="320" y="642" type="curve"/>
      <point x="320" y="736" type="line"/>
      <point x="158" y="736" smooth="yes"/>
      <point x="71" y="665" smooth="yes"/>
      <point x="71" y="533" type="curve" smooth="yes"/>
      <point x="71" y="491" smooth="yes"/>
      <point x="79" y="457" smooth="yes"/>
      <point x="79" y="420" type="curve" smooth="yes"/>
      <point x="79" y="395"/>
      <point x="50" y="376"/>
      <point x="12" y="376" type="curve"/>
      <point x="12" y="294" type="line"/>
      <point x="50" y="294" smooth="yes"/>
      <point x="79" y="275" smooth="yes"/>
      <point x="79" y="250" type="curve" smooth="yes"/>
      <point x="79" y="213" smooth="yes"/>
      <point x="71" y="179" smooth="yes"/>
      <point x="71" y="137" type="curve" smooth="yes"/>
      <point x="71" y="5"/>
      <point x="158" y="-66"/>
    </contour>
  </outline>
</glyph>
<glyph name="braceright" format="1">
  <advance width="329"/>
  <unicode hex="007D"/>
  <outline>
    <contour>
      <point x="9" y="-66" type="line" name="hr00"/>
      <point x="172" y="-66" smooth="yes"/>
      <point x="258" y="4" smooth="yes"/>
      <point x="258" y="137" type="curve" smooth="yes"/>
      <point x="258" y="179" smooth="yes"/>
      <point x="250" y="213" smooth="yes"/>
      <point x="250" y="250" type="curve" smooth="yes"/>
      <point x="250" y="276"/>
      <point x="277" y="294"/>
      <point x="317" y="294" type="curve"/>
      <point x="317" y="376" type="line"/>
      <point x="277" y="376" smooth="yes"/>
      <point x="250" y="394" smooth="yes"/>
      <point x="250" y="420" type="curve" smooth="yes"/>
      <point x="250" y="457" smooth="yes"/>
      <point x="258" y="491" smooth="yes"/>
      <point x="258" y="533" type="curve" smooth="yes"/>
      <point x="258" y="666"/>
      <point x="172" y="736"/>
      <point x="9" y="736" type="curve"/>
      <point x="9" y="642" type="line"/>
      <point x="85" y="642" smooth="yes"/>
      <point x="120" y="605" smooth="yes"/>
      <point x="120" y="526" type="curve" smooth="yes"/>
      <point x="120" y="479" smooth="yes"/>
      <point x="113" y="451" smooth="yes"/>
      <point x="113" y="411" type="curve" smooth="yes"/>
      <point x="113" y="375"/>
      <point x="133" y="349"/>
      <point x="161" y="349" type="curve"/>
      <point x="161" y="344" type="line"/>
      <point x="133" y="344" smooth="yes"/>
      <point x="113" y="318" smooth="yes"/>
      <point x="113" y="282" type="curve" smooth="yes"/>
      <point x="113" y="242" smooth="yes"/>
      <point x="120" y="214" smooth="yes"/>
      <point x="120" y="167" type="curve" smooth="yes"/>
      <point x="120" y="73"/>
      <point x="84" y="28"/>
      <point x="9" y="28" type="curve"/>
    </contour>
  </outline>
</glyph>
<glyph name="asciitilde" format="1">
  <advance width="580"/>
  <unicode hex="007E"/>
  <outline>
    <contour>
      <point x="86" y="272" type="line"/>
      <point x="113" y="256" smooth="yes"/>
      <point x="148" y="250" smooth="yes"/>
      <point x="176" y="250" type="curve" smooth="yes"/>
      <point x="251" y="250" smooth="yes"/>
      <point x="328" y="293" smooth="yes"/>
      <point x="404" y="293" type="curve" smooth="yes" name="hr01"/>
      <point x="432" y="293"/>
      <point x="467" y="287"/>
      <point x="494" y="272" type="curve"/>
      <point x="494" y="364" type="line"/>
      <point x="467" y="378" smooth="yes"/>
      <point x="431" y="383" smooth="yes"/>
      <point x="404" y="383" type="curve" smooth="yes"/>
      <point x="328" y="383" smooth="yes"/>
      <point x="251" y="340" smooth="yes"/>
      <point x="176" y="340" type="curve" smooth="yes" name="hr02"/>
      <point x="148" y="340"/>
      <point x="113" y="345"/>
      <point x="86" y="364" type="curve"/>
    </contour>
  </outline>
</glyph>
<glyph name="exclamdown" format="1">
  <advance width="298"/>
  <unicode hex="00A1"/>
  <outline>
    <contour>
      <point x="149" y="429" type="curve" name="hr00"/>
      <point x="200" y="429" smooth="yes"/>
      <point x="220" y="452" smooth="yes"/>
      <point x="220" y="508" type="curve" smooth="yes"/>
      <point x="220" y="563" smooth="yes"/>
      <point x="199" y="586" smooth="yes"/>
      <point x="149" y="586" type="curve" smooth="yes"/>
      <point x="98" y="586" smooth="yes"/>
      <point x="76" y="562" smooth="yes"/>
      <point x="76" y="508" type="curve" smooth="yes"/>
      <point x="76" y="452" smooth="yes"/>
      <point x="97" y="429" smooth="yes"/>
    </contour>
    <contour>
      <point x="76" y="-152" type="line"/>
      <point x="223" y="-152" type="line"/>
      <point x="223" y="30" type="line"/>
      <point x="189" y="369" type="line"/>
      <point x="110" y="369" type="line"/>
      <point x="76" y="30" type="line"/>
    </contour>
  </outline>
</glyph>
<glyph name="cent" format="1">
  <advance width="630"/>
  <unicode hex="00A2"/>
  <outline>
    <contour>
      <point x="286" y="-81" type="line" name="hr00"/>
      <point x="376" y="-81" type="line"/>
      <point x="376" y="40" type="line"/>
      <point x="502" y="51"/>
      <point x="568" y="118"/>
      <point x="579" y="242" type="curve"/>
      <point x="473" y="249" type="line"/>
      <point x="470" y="176" smooth="yes"/>
      <point x="427" y="142" smooth="yes"/>
      <point x="336" y="142" type="curve" smooth="yes"/>
      <point x="246" y="142" smooth="yes"/>
      <point x="201" y="216" smooth="yes"/>
      <point x="201" y="365" type="curve" smooth="yes"/>
      <point x="201" y="522" smooth="yes"/>
      <point x="244" y="588" smooth="yes"/>
      <point x="348" y="588" type="curve" smooth="yes"/>
      <point x="418" y="588"/>
      <point x="463" y="542"/>
      <point x="465" y="466" type="curve"/>
      <point x="571" y="471" type="line"/>
      <point x="560" y="605"/>
      <point x="493" y="680"/>
      <point x="376" y="691" type="curve"/>
      <point x="376" y="810" type="line"/>
      <point x="286" y="810" type="line"/>
      <point x="286" y="688" type="line"/>
      <point x="139" y="665" smooth="yes"/>
      <point x="67" y="558" smooth="yes"/>
      <point x="67" y="365" type="curve" smooth="yes"/>
      <point x="67" y="165"/>
      <point x="140" y="57"/>
      <point x="286" y="40" type="curve"/>
    </contour>
  </outline>
</glyph>
<glyph name="currency" format="1">
  <advance width="630"/>
  <unicode hex="00A4"/>
  <outline>
    <contour>
      <point x="97" y="83" type="line" name="hr00"/>
      <point x="185" y="172" type="line"/>
      <point x="218" y="149" smooth="yes"/>
      <point x="261" y="137" smooth="yes"/>
      <point x="313" y="137" type="curve" smooth="yes"/>
      <point x="365" y="137"/>
      <point x="410" y="148"/>
      <point x="446" y="169" type="curve"/>
      <point x="533" y="83" type="line"/>
      <point x="597" y="147" type="line"/>
      <point x="510" y="233" type="line"/>
      <point x="532" y="269" smooth="yes"/>
      <point x="543" y="314" smooth="yes"/>
      <point x="543" y="365" type="curve" smooth="yes"/>
      <point x="543" y="414"/>
      <point x="532" y="461"/>
      <point x="511" y="497" type="curve"/>
      <point x="597" y="583" type="line"/>
      <point x="533" y="647" type="line"/>
      <point x="448" y="562" type="line"/>
      <point x="415" y="582" smooth="yes"/>
      <point x="373" y="593" smooth="yes"/>
      <point x="326" y="593" type="curve" smooth="yes"/>
      <point x="271" y="593"/>
      <point x="223" y="581"/>
      <point x="187" y="557" type="curve"/>
      <point x="97" y="647" type="line"/>
      <point x="33" y="583" type="line"/>
      <point x="126" y="490" type="line"/>
      <point x="107" y="455" smooth="yes"/>
      <point x="97" y="411" smooth="yes"/>
      <point x="97" y="365" type="curve" smooth="yes"/>
      <point x="97" y="316"/>
      <point x="106" y="273"/>
      <point x="125" y="238" type="curve"/>
      <point x="33" y="147" type="line"/>
    </contour>
    <contour>
      <point x="313" y="252" type="curve" smooth="yes"/>
      <point x="252" y="252" smooth="yes"/>
      <point x="216" y="294" smooth="yes"/>
      <point x="216" y="365" type="curve" smooth="yes"/>
      <point x="216" y="437" smooth="yes"/>
      <point x="256" y="478" smooth="yes"/>
      <point x="326" y="478" type="curve" smooth="yes"/>
      <point x="387" y="478" smooth="yes"/>
      <point x="424" y="436" smooth="yes"/>
      <point x="424" y="365" type="curve" smooth="yes"/>
      <point x="424" y="293" smooth="yes"/>
      <point x="384" y="252" smooth="yes"/>
    </contour>
  </outline>
</glyph>
<glyph name="yen" format="1">
  <advance width="630"/>
  <unicode hex="00A5"/>
  <outline>
    <contour>
      <point x="69" y="381" type="line" name="hr00"/>
      <point x="209" y="381" type="line"/>
      <point x="246" y="308" type="line"/>
      <point x="69" y="308" type="line"/>
      <point x="69" y="227" type="line"/>
      <point x="249" y="227" type="line"/>
      <point x="249" y="0" type="line"/>
      <point x="381" y="0" type="line"/>
      <point x="381" y="227" type="line"/>
      <point x="563" y="227" type="line"/>
      <point x="563" y="308" type="line"/>
      <point x="384" y="308" type="line"/>
      <point x="421" y="381" type="line"/>
      <point x="563" y="381" type="line"/>
      <point x="563" y="462" type="line"/>
      <point x="462" y="462" type="line"/>
      <point x="599" y="730" type="line"/>
      <point x="462" y="730" type="line"/>
      <point x="315" y="430" type="line"/>
      <point x="169" y="730" type="line"/>
      <point x="31" y="730" type="line"/>
      <point x="167" y="462" type="line"/>
      <point x="69" y="462" type="line"/>
    </contour>
  </outline>
</glyph>
<glyph name="section" format="1">
  <advance width="504"/>
  <unicode hex="00A7"/>
  <outline>
    <contour>
      <point x="182" y="-308" type="line"/>
      <point x="323" y="-275" smooth="yes"/>
      <point x="402" y="-199" smooth="yes"/>
      <point x="402" y="-97" type="curve" smooth="yes"/>
      <point x="402" y="-51"/>
      <point x="386" y="-5"/>
      <point x="354" y="38" type="curve"/>
      <point x="437" y="78" smooth="yes"/>
      <point x="480" y="139" smooth="yes"/>
      <point x="480" y="217" type="curve" smooth="yes"/>
      <point x="480" y="276"/>
      <point x="454" y="333"/>
      <point x="405" y="384" type="curve"/>
      <point x="272" y="542" type="line" smooth="yes"/>
      <point x="244" y="574" smooth="yes"/>
      <point x="236" y="593" smooth="yes"/>
      <point x="236" y="630" type="curve" smooth="yes" name="hr01"/>
      <point x="236" y="672"/>
      <point x="282" y="710"/>
      <point x="353" y="726" type="curve"/>
      <point x="322" y="822" type="line"/>
      <point x="182" y="789" smooth="yes"/>
      <point x="102" y="713" smooth="yes"/>
      <point x="102" y="612" type="curve" smooth="yes"/>
      <point x="102" y="567"/>
      <point x="119" y="521"/>
      <point x="151" y="477" type="curve"/>
      <point x="67" y="437" smooth="yes"/>
      <point x="24" y="376" smooth="yes"/>
      <point x="24" y="298" type="curve" smooth="yes"/>
      <point x="24" y="244" smooth="yes"/>
      <point x="48" y="189" smooth="yes"/>
      <point x="96" y="133" type="curve" smooth="yes"/>
      <point x="223" y="-17" type="line" smooth="yes"/>
      <point x="260" y="-60" smooth="yes"/>
      <point x="268" y="-78" smooth="yes"/>
      <point x="268" y="-115" type="curve" smooth="yes" name="hr02"/>
      <point x="268" y="-158"/>
      <point x="221" y="-196"/>
      <point x="151" y="-211" type="curve"/>
    </contour>
    <contour>
      <point x="284" y="120" type="curve"/>
      <point x="194" y="228" type="line" smooth="yes"/>
      <point x="166" y="262" smooth="yes"/>
      <point x="158" y="279" smooth="yes"/>
      <point x="158" y="317" type="curve" smooth="yes"/>
      <point x="158" y="347"/>
      <point x="179" y="373"/>
      <point x="219" y="393" type="curve"/>
      <point x="301" y="297" type="line" smooth="yes"/>
      <point x="339" y="253" smooth="yes"/>
      <point x="346" y="236" smooth="yes"/>
      <point x="346" y="197" type="curve" smooth="yes"/>
      <point x="346" y="166"/>
      <point x="324" y="139"/>
    </contour>
  </outline>
</glyph>
<glyph name="copyright" format="1">
  <advance width="735"/>
  <unicode hex="00A9"/>
  <outline>
    <contour>
      <point x="369" y="352" type="curve" name="hr00"/>
      <point x="460" y="352"/>
      <point x="507" y="400"/>
      <point x="513" y="497" type="curve"/>
      <point x="447" y="500" type="line"/>
      <point x="444" y="441" smooth="yes"/>
      <point x="419" y="411" smooth="yes"/>
      <point x="371" y="411" type="curve" smooth="yes"/>
      <point x="315" y="411" smooth="yes"/>
      <point x="289" y="458" smooth="yes"/>
      <point x="289" y="561" type="curve" smooth="yes"/>
      <point x="289" y="660" smooth="yes"/>
      <point x="317" y="711" smooth="yes"/>
      <point x="370" y="711" type="curve" smooth="yes"/>
      <point x="418" y="711"/>
      <point x="440" y="689"/>
      <point x="445" y="637" type="curve"/>
      <point x="512" y="642" type="line"/>
      <point x="503" y="728" smooth="yes"/>
      <point x="456" y="769" smooth="yes"/>
      <point x="368" y="769" type="curve" smooth="yes"/>
      <point x="262" y="769" smooth="yes"/>
      <point x="213" y="703" smooth="yes"/>
      <point x="213" y="561" type="curve" smooth="yes"/>
      <point x="213" y="414" smooth="yes"/>
      <point x="260" y="352" smooth="yes"/>
    </contour>
    <contour>
      <point x="685" y="560" type="curve"/>
      <point x="685" y="766" smooth="yes"/>
      <point x="573" y="878" smooth="yes"/>
      <point x="367" y="878" type="curve" smooth="yes"/>
      <point x="161" y="878" smooth="yes"/>
      <point x="50" y="766" smooth="yes"/>
      <point x="50" y="560" type="curve" smooth="yes"/>
      <point x="50" y="354" smooth="yes"/>
      <point x="161" y="243" smooth="yes"/>
      <point x="367" y="243" type="curve" smooth="yes"/>
      <point x="573" y="243" smooth="yes"/>
      <point x="685" y="354" smooth="yes"/>
    </contour>
    <contour>
      <point x="122" y="560" type="curve"/>
      <point x="122" y="726" smooth="yes"/>
      <point x="205" y="811" smooth="yes"/>
      <point x="367" y="811" type="curve" smooth="yes"/>
      <point x="529" y="811" smooth="yes"/>
      <point x="613" y="726" smooth="yes"/>
      <point x="613" y="560" type="curve" smooth="yes"/>
      <point x="613" y="395" smooth="yes"/>
      <point x="530" y="310" smooth="yes"/>
      <point x="367" y="310" type="curve" smooth="yes"/>
      <point x="205" y="310" smooth="yes"/>
      <point x="122" y="394" smooth="yes"/>
    </contour>
  </outline>
</glyph>
<glyph name="ordfeminine" format="1">
  <advance width="444"/>
  <unicode hex="00AA"/>
  <outline>
    <contour>
      <point x="151" y="340" type="curve" name="hr00"/>
      <point x="195" y="340"/>
      <point x="234" y="356"/>
      <point x="269" y="389" type="curve"/>
      <point x="304" y="350" type="line"/>
      <point x="382" y="350" type="line"/>
      <point x="382" y="621" type="line" smooth="yes"/>
      <point x="382" y="712" smooth="yes"/>
      <point x="326" y="760" smooth="yes"/>
      <point x="221" y="760" type="curve" smooth="yes"/>
      <point x="132" y="760"/>
      <point x="83" y="725"/>
      <point x="63" y="646" type="curve"/>
      <point x="156" y="618" type="line"/>
      <point x="160" y="651" smooth="yes"/>
      <point x="181" y="669" smooth="yes"/>
      <point x="212" y="669" type="curve" smooth="yes"/>
      <point x="243" y="669" smooth="yes"/>
      <point x="261" y="651" smooth="yes"/>
      <point x="261" y="620" type="curve" smooth="yes"/>
      <point x="261" y="592" type="line"/>
      <point x="194" y="583" type="line" smooth="yes"/>
      <point x="83" y="567" smooth="yes"/>
      <point x="39" y="530" smooth="yes"/>
      <point x="39" y="451" type="curve" smooth="yes"/>
      <point x="39" y="384" smooth="yes"/>
      <point x="84" y="340" smooth="yes"/>
    </contour>
    <contour>
      <point x="189" y="427" type="curve" smooth="yes"/>
      <point x="167" y="427" smooth="yes"/>
      <point x="155" y="439" smooth="yes"/>
      <point x="155" y="460" type="curve" smooth="yes"/>
      <point x="155" y="487" smooth="yes"/>
      <point x="175" y="503" smooth="yes"/>
      <point x="219" y="512" type="curve" smooth="yes"/>
      <point x="261" y="520" type="line"/>
      <point x="261" y="456" type="line"/>
      <point x="239" y="437" smooth="yes"/>
      <point x="214" y="427" smooth="yes"/>
    </contour>
    <contour>
      <point x="389" y="204" type="line"/>
      <point x="389" y="281" type="line"/>
      <point x="32" y="281" type="line"/>
      <point x="32" y="204" type="line"/>
    </contour>
  </outline>
</glyph>
<glyph name="logicalnot" format="1">
  <advance width="580"/>
  <unicode hex="00AC"/>
  <outline>
    <contour>
      <point x="86" y="272" type="line" name="hr00"/>
      <point x="406" y="272" type="line"/>
      <point x="406" y="134" type="line"/>
      <point x="494" y="134" type="line"/>
      <point x="494" y="364" type="line"/>
      <point x="86" y="364" type="line"/>
    </contour>
  </outline>
</glyph>
<glyph name="macron" format="1">
  <advance width="354"/>
  <unicode hex="00AF"/>
  <outline>
    <contour>
      <point x="42" y="670" type="line" name="hr00"/>
      <point x="312" y="670" type="line"/>
      <point x="312" y="767" type="line"/>
      <point x="42" y="767" type="line"/>
    </contour>
  </outline>
</glyph>
<glyph name="degree" format="1">
  <advance width="409"/>
  <unicode hex="00B0"/>
  <outline>
    <contour>
      <point x="204" y="340" type="curve" smooth="yes" name="hr00"/>
      <point x="331" y="340" smooth="yes"/>
      <point x="383" y="394" smooth="yes"/>
      <point x="383" y="525" type="curve" smooth="yes"/>
      <point x="383" y="657" smooth="yes"/>
      <point x="331" y="710" smooth="yes"/>
      <point x="204" y="710" type="curve" smooth="yes"/>
      <point x="77" y="710" smooth="yes"/>
      <point x="26" y="657" smooth="yes"/>
      <point x="26" y="525" type="curve" smooth="yes"/>
      <point x="26" y="394" smooth="yes"/>
      <point x="78" y="340" smooth="yes"/>
    </contour>
    <contour>
      <point x="204" y="431" type="curve" smooth="yes"/>
      <point x="152" y="431" smooth="yes"/>
      <point x="138" y="450" smooth="yes"/>
      <point x="138" y="525" type="curve" smooth="yes"/>
      <point x="138" y="600" smooth="yes"/>
      <point x="152" y="620" smooth="yes"/>
      <point x="204" y="620" type="curve" smooth="yes"/>
      <point x="257" y="620" smooth="yes"/>
      <point x="271" y="599" smooth="yes"/>
      <point x="271" y="525" type="curve" smooth="yes"/>
      <point x="271" y="451" smooth="yes"/>
      <point x="257" y="431" smooth="yes"/>
    </contour>
  </outline>
</glyph>
<glyph name="acute" format="1">
  <advance width="298"/>
  <unicode hex="00B4"/>
  <outline>
    <contour>
      <point x="72" y="620" type="line" name="hr00"/>
      <point x="282" y="729" type="line"/>
      <point x="222" y="825" type="line"/>
      <point x="27" y="692" type="line"/>
    </contour>
  </outline>
</glyph>
<glyph name="mu" format="1">
  <advance width="625"/>
  <unicode hex="00B5"/>
  <outline>
    <contour>
      <point x="96" y="-227" type="line" name="hr00"/>
      <point x="230" y="-227" type="line"/>
      <point x="230" y="32" type="line"/>
      <point x="287" y="2" smooth="yes"/>
      <point x="350" y="-14" smooth="yes"/>
      <point x="407" y="-14" type="curve" smooth="yes"/>
      <point x="526" y="-14" smooth="yes"/>
      <point x="584" y="46" smooth="yes"/>
      <point x="584" y="168" type="curve" smooth="yes"/>
      <point x="584" y="572" type="line"/>
      <point x="450" y="572" type="line"/>
      <point x="450" y="190" type="line" smooth="yes"/>
      <point x="450" y="118" smooth="yes"/>
      <point x="424" y="89" smooth="yes"/>
      <point x="361" y="89" type="curve" smooth="yes"/>
      <point x="315" y="89"/>
      <point x="271" y="103"/>
      <point x="230" y="129" type="curve"/>
      <point x="230" y="572" type="line"/>
      <point x="96" y="572" type="line"/>
    </contour>
  </outline>
</glyph>
<glyph name="guillemotright" format="1">
  <advance width="536"/>
  <unicode hex="00BB"/>
  <outline>
    <contour>
      <point x="263" y="164" type="line" name="hr00"/>
      <point x="328" y="100" type="line"/>
      <point x="508" y="291" type="line"/>
      <point x="508" y="339" type="line"/>
      <point x="328" y="530" type="line"/>
      <point x="263" y="466" type="line"/>
      <point x="377" y="315" type="line"/>
    </contour>
    <contour>
      <point x="32" y="164" type="line"/>
      <point x="97" y="100" type="line"/>
      <point x="277" y="291" type="line"/>
      <point x="277" y="339" type="line"/>
      <point x="97" y="530" type="line"/>
      <point x="32" y="466" type="line"/>
      <point x="146" y="315" type="line"/>
    </contour>
  </outline>
</glyph>
<glyph name="questiondown" format="1">
  <advance width="468"/>
  <unicode hex="00BF"/>
  <outline>
    <contour>
      <point x="247" y="-166" type="curve" name="hr00"/>
      <point x="371" y="-166"/>
      <point x="446" y="-104"/>
      <point x="458" y="7" type="curve"/>
      <point x="343" y="23" type="line"/>
      <point x="337" y="-36" smooth="yes"/>
      <point x="305" y="-65" smooth="yes"/>
      <point x="247" y="-65" type="curve" smooth="yes"/>
      <point x="191" y="-65" smooth="yes"/>
      <point x="152" y="-19" smooth="yes"/>
      <point x="152" y="46" type="curve" smooth="yes"/>
      <point x="152" y="127"/>
      <point x="202" y="176"/>
      <point x="321" y="213" type="curve"/>
      <point x="312" y="369" type="line"/>
      <point x="228" y="369" type="line"/>
      <point x="217" y="259" type="line"/>
      <point x="90" y="221" smooth="yes"/>
      <point x="18" y="143" smooth="yes"/>
      <point x="18" y="43" type="curve" smooth="yes"/>
      <point x="18" y="-81" smooth="yes"/>
      <point x="111" y="-166" smooth="yes"/>
    </contour>
    <contour>
      <point x="269" y="586" type="curve" smooth="yes"/>
      <point x="218" y="586" smooth="yes"/>
      <point x="196" y="563" smooth="yes"/>
      <point x="196" y="508" type="curve" smooth="yes"/>
      <point x="196" y="452" smooth="yes"/>
      <point x="217" y="429" smooth="yes"/>
      <point x="269" y="429" type="curve" smooth="yes"/>
      <point x="319" y="429" smooth="yes"/>
      <point x="340" y="452" smooth="yes"/>
      <point x="340" y="508" type="curve" smooth="yes"/>
      <point x="340" y="562" smooth="yes"/>
      <point x="318" y="586" smooth="yes"/>
    </contour>
  </outline>
</glyph>
<glyph name="AE" format="1">
  <advance width="935"/>
  <unicode hex="00C6"/>
  <outline>
    <contour>
      <point x="316" y="730" type="line" name="hr00"/>
      <point x="11" y="0" type="line"/>
      <point x="143" y="0" type="line"/>
      <point x="266" y="299" type="line"/>
      <point x="469" y="299" type="line"/>
      <point x="469" y="0" type="line"/>
      <point x="901" y="0" type="line"/>
      <point x="901" y="105" type="line"/>
      <point x="605" y="105" type="line"/>
      <point x="605" y="299" type="line"/>
      <point x="856" y="299" type="line"/>
      <point x="856" y="403" type="line"/>
      <point x="605" y="403" type="line"/>
      <point x="605" y="625" type="line"/>
      <point x="881" y="625" type="line"/>
      <point x="881" y="730" type="line"/>
    </contour>
    <contour>
      <point x="469" y="625" type="line"/>
      <point x="469" y="403" type="line"/>
      <point x="308" y="403" type="line"/>
      <point x="400" y="625" type="line"/>
    </contour>
  </outline>
</glyph>
<glyph name="ae" format="1">
  <advance width="902"/>
  <unicode hex="00E6"/>
  <outline>
    <contour>
      <point x="197" y="-14" type="curve" name="hr00"/>
      <point x="281" y="-14"/>
      <point x="350" y="17"/>
      <point x="417" y="84" type="curve"/>
      <point x="456" y="18" smooth="yes"/>
      <point x="525" y="-14" smooth="yes"/>
      <point x="631" y="-14" type="curve" smooth="yes"/>
      <point x="774" y="-14"/>
      <point x="850" y="45"/>
      <point x="863" y="165" type="curve"/>
      <point x="753" y="169" type="line"/>
      <point x="748" y="115" smooth="yes"/>
      <point x="709" y="89" smooth="yes"/>
      <point x="635" y="89" type="curve" smooth="yes"/>
      <point x="542" y="89"/>
      <point x="506" y="136"/>
      <point x="505" y="260" type="curve"/>
      <point x="871" y="260" type="line"/>
      <point x="871" y="296" type="line" smooth="yes"/>
      <point x="871" y="490" smooth="yes"/>
      <point x="791" y="586" smooth="yes"/>
      <point x="627" y="586" type="curve" smooth="yes"/>
      <point x="555" y="586"/>
      <point x="497" y="567"/>
      <point x="457" y="531" type="curve"/>
      <point x="421" y="567" smooth="yes"/>
      <point x="365" y="586" smooth="yes"/>
      <point x="291" y="586" type="curve" smooth="yes"/>
      <point x="171" y="586"/>
      <point x="101" y="533"/>
      <point x="76" y="423" type="curve"/>
      <point x="181" y="395" type="line"/>
      <point x="191" y="452" smooth="yes"/>
      <point x="227" y="483" smooth="yes"/>
      <point x="283" y="483" type="curve" smooth="yes"/>
      <point x="341" y="483" smooth="yes"/>
      <point x="371" y="450" smooth="yes"/>
      <point x="371" y="386" type="curve" smooth="yes"/>
      <point x="371" y="341" type="line"/>
      <point x="255" y="322" type="line" smooth="yes"/>
      <point x="104" y="297" smooth="yes"/>
      <point x="45" y="245" smooth="yes"/>
      <point x="45" y="139" type="curve" smooth="yes"/>
      <point x="45" y="44" smooth="yes"/>
      <point x="102" y="-14" smooth="yes"/>
    </contour>
    <contour>
      <point x="240" y="81" type="curve" smooth="yes"/>
      <point x="200" y="81" smooth="yes"/>
      <point x="174" y="105" smooth="yes"/>
      <point x="174" y="142" type="curve" smooth="yes"/>
      <point x="174" y="191" smooth="yes"/>
      <point x="206" y="218" smooth="yes"/>
      <point x="279" y="232" type="curve" smooth="yes"/>
      <point x="375" y="250" type="line"/>
      <point x="376" y="220"/>
      <point x="380" y="189"/>
      <point x="389" y="149" type="curve"/>
      <point x="348" y="107" smooth="yes"/>
      <point x="290" y="81" smooth="yes"/>
    </contour>
    <contour>
      <point x="508" y="351" type="line"/>
      <point x="518" y="445" smooth="yes"/>
      <point x="552" y="483" smooth="yes"/>
      <point x="626" y="483" type="curve" smooth="yes"/>
      <point x="698" y="483"/>
      <point x="731" y="445"/>
      <point x="739" y="351" type="curve"/>
    </contour>
  </outline>
</glyph>
<glyph name="eth" format="1">
  <advance width="592"/>
  <unicode hex="00F0"/>
  <outline>
    <contour>
      <point x="296" y="-14" type="curve" name="hr00"/>
      <point x="462" y="-14" smooth="yes"/>
      <point x="556" y="79" smooth="yes"/>
      <point x="556" y="246" type="curve" smooth="yes"/>
      <point x="556" y="447"/>
      <point x="471" y="637"/>
      <point x="325" y="764" type="curve"/>
      <point x="262" y="689" type="line"/>
      <point x="332" y="621"/>
      <point x="375" y="554"/>
      <point x="400" y="472" type="curve"/>
      <point x="368" y="495" smooth="yes"/>
      <point x="333" y="506" smooth="yes"/>
      <point x="296" y="506" type="curve" smooth="yes"/>
      <point x="130" y="506" smooth="yes"/>
      <point x="36" y="412" smooth="yes"/>
      <point x="36" y="246" type="curve" smooth="yes"/>
      <point x="36" y="79" smooth="yes"/>
      <point x="129" y="-14" smooth="yes"/>
    </contour>
    <contour>
      <point x="296" y="85" type="curve" smooth="yes"/>
      <point x="215" y="85" smooth="yes"/>
      <point x="170" y="142" smooth="yes"/>
      <point x="170" y="246" type="curve" smooth="yes"/>
      <point x="170" y="350" smooth="yes"/>
      <point x="215" y="407" smooth="yes"/>
      <point x="296" y="407" type="curve" smooth="yes"/>
      <point x="377" y="407" smooth="yes"/>
      <point x="422" y="350" smooth="yes"/>
      <point x="422" y="246" type="curve" smooth="yes"/>
      <point x="422" y="142" smooth="yes"/>
      <point x="377" y="85" smooth="yes"/>
    </contour>
    <component  base="eslash" xOffset="246" yOffset="264"/>
  </outline>
</glyph>
<glyph name="divide" format="1">
  <advance width="580"/>
  <unicode hex="00F7"/>
  <outline>
    <contour>
      <point x="289" y="59" type="curve" name="hr00"/>
      <point x="334" y="59" smooth="yes"/>
      <point x="354" y="81" smooth="yes"/>
      <point x="354" y="133" type="curve" smooth="yes"/>
      <point x="354" y="186" smooth="yes"/>
      <point x="335" y="208" smooth="yes"/>
      <point x="289" y="208" type="curve" smooth="yes"/>
      <point x="245" y="208" smooth="yes"/>
      <point x="226" y="186" smooth="yes"/>
      <point x="226" y="133" type="curve" smooth="yes"/>
      <point x="226" y="81" smooth="yes"/>
      <point x="245" y="59" smooth="yes"/>
    </contour>
    <contour>
      <point x="289" y="418" type="curve"/>
      <point x="334" y="418" smooth="yes"/>
      <point x="354" y="440" smooth="yes"/>
      <point x="354" y="492" type="curve" smooth="yes"/>
      <point x="354" y="545" smooth="yes"/>
      <point x="335" y="567" smooth="yes"/>
      <point x="289" y="567" type="curve" smooth="yes"/>
      <point x="245" y="567" smooth="yes"/>
      <point x="226" y="545" smooth="yes"/>
      <point x="226" y="492" type="curve" smooth="yes"/>
      <point x="226" y="440" smooth="yes"/>
      <point x="245" y="418" smooth="yes"/>
    </contour>
    <contour>
      <point x="86" y="272" type="line"/>
      <point x="494" y="272" type="line"/>
      <point x="494" y="364" type="line"/>
      <point x="86" y="364" type="line"/>
    </contour>
  </outline>
</glyph>
<glyph name="Eng" format="1">
  <advance width="757"/>
  <unicode hex="014A"/>
  <outline>
    <contour>
      <point x="488" y="-209" type="curve" name="hr00"/>
      <point x="603" y="-209" smooth="yes"/>
      <point x="663" y="-153" smooth="yes"/>
      <point x="663" y="-45" type="curve" smooth="yes"/>
      <point x="663" y="730" type="line"/>
      <point x="527" y="730" type="line"/>
      <point x="527" y="247" type="line"/>
      <point x="238" y="730" type="line"/>
      <point x="94" y="730" type="line"/>
      <point x="94" y="0" type="line"/>
      <point x="230" y="0" type="line"/>
      <point x="230" y="503" type="line"/>
      <point x="527" y="6" type="line"/>
      <point x="527" y="-45" type="line" smooth="yes"/>
      <point x="527" y="-85" smooth="yes"/>
      <point x="510" y="-104" smooth="yes"/>
      <point x="474" y="-104" type="curve" smooth="yes"/>
      <point x="449" y="-104"/>
      <point x="429" y="-100"/>
      <point x="406" y="-91" type="curve"/>
      <point x="373" y="-192" type="line"/>
      <point x="410" y="-204" smooth="yes"/>
      <point x="443" y="-209" smooth="yes"/>
    </contour>
  </outline>
</glyph>
<glyph name="eng" format="1">
  <advance width="663"/>
  <unicode hex="014B"/>
  <outline>
    <contour>
      <point x="406" y="-209" type="curve"/>
      <point x="520" y="-209" smooth="yes"/>
      <point x="579" y="-153" smooth="yes"/>
      <point x="579" y="-45" type="curve" smooth="yes"/>
      <point x="579" y="404" type="line" smooth="yes"/>
      <point x="579" y="522" smooth="yes"/>
      <point x="516" y="586" smooth="yes"/>
      <point x="398" y="586" type="curve" smooth="yes"/>
      <point x="333" y="586"/>
      <point x="258" y="561"/>
      <point x="200" y="520" type="curve"/>
      <point x="157" y="572" type="line"/>
      <point x="94" y="572" type="line"/>
      <point x="94" y="0" type="line"/>
      <point x="228" y="0" type="line"/>
      <point x="228" y="438" type="line"/>
      <point x="268" y="468" smooth="yes"/>
      <point x="314" y="483" smooth="yes"/>
      <point x="362" y="483" type="curve" smooth="yes"/>
      <point x="423" y="483" smooth="yes"/>
      <point x="445" y="458" smooth="yes"/>
      <point x="445" y="390" type="curve" smooth="yes"/>
      <point x="445" y="-45" type="line" smooth="yes"/>
      <point x="445" y="-85" smooth="yes"/>
      <point x="428" y="-104" smooth="yes"/>
      <point x="392" y="-104" type="curve" smooth="yes"/>
      <point x="367" y="-104"/>
      <point x="347" y="-100"/>
      <point x="324" y="-91" type="curve" name="hr01"/>
      <point x="291" y="-192" type="line"/>
      <point x="328" y="-204" smooth="yes"/>
      <point x="360" y="-209" smooth="yes"/>
    </contour>
  </outline>
</glyph>
<glyph name="oe" format="1">
  <advance width="953"/>
  <unicode hex="0153"/>
  <outline>
    <contour>
      <point x="296" y="-14" type="curve" name="hr00"/>
      <point x="381" y="-14"/>
      <point x="445" y="10"/>
      <point x="488" y="59" type="curve"/>
      <point x="528" y="10" smooth="yes"/>
      <point x="592" y="-14" smooth="yes"/>
      <point x="682" y="-14" type="curve" smooth="yes"/>
      <point x="826" y="-14"/>
      <point x="903" y="45"/>
      <point x="914" y="165" type="curve"/>
      <point x="804" y="169" type="line"/>
      <point x="799" y="115" smooth="yes"/>
      <point x="760" y="89" smooth="yes"/>
      <point x="686" y="89" type="curve" smooth="yes"/>
      <point x="594" y="89" smooth="yes"/>
      <point x="559" y="135" smooth="yes"/>
      <point x="556" y="260" type="curve" smooth="yes"/>
      <point x="922" y="260" type="line"/>
      <point x="922" y="296" type="line" smooth="yes"/>
      <point x="922" y="491" smooth="yes"/>
      <point x="842" y="586" smooth="yes"/>
      <point x="678" y="586" type="curve" smooth="yes"/>
      <point x="593" y="586"/>
      <point x="531" y="561"/>
      <point x="490" y="511" type="curve"/>
      <point x="448" y="561" smooth="yes"/>
      <point x="382" y="586" smooth="yes"/>
      <point x="296" y="586" type="curve" smooth="yes"/>
      <point x="123" y="586" smooth="yes"/>
      <point x="36" y="485" smooth="yes"/>
      <point x="36" y="286" type="curve" smooth="yes"/>
      <point x="36" y="87" smooth="yes"/>
      <point x="123" y="-14" smooth="yes"/>
    </contour>
    <contour>
      <point x="296" y="89" type="curve" smooth="yes"/>
      <point x="206" y="89" smooth="yes"/>
      <point x="170" y="146" smooth="yes"/>
      <point x="170" y="286" type="curve" smooth="yes"/>
      <point x="170" y="426" smooth="yes"/>
      <point x="206" y="483" smooth="yes"/>
      <point x="296" y="483" type="curve" smooth="yes"/>
      <point x="387" y="483" smooth="yes"/>
      <point x="422" y="427" smooth="yes"/>
      <point x="422" y="283" type="curve" smooth="yes"/>
      <point x="422" y="145" smooth="yes"/>
      <point x="385" y="89" smooth="yes"/>
    </contour>
    <contour>
      <point x="560" y="351" type="line"/>
      <point x="569" y="444" smooth="yes"/>
      <point x="604" y="483" smooth="yes"/>
      <point x="677" y="483" type="curve" smooth="yes"/>
      <point x="749" y="483"/>
      <point x="781" y="445"/>
      <point x="790" y="351" type="curve"/>
    </contour>
  </outline>
</glyph>
<glyph name="florin" format="1">
  <advance width="630"/>
  <unicode hex="0192"/>
  <outline>
    <contour>
      <point x="113" y="-218" type="line" name="hr00"/>
      <point x="299" y="-218" smooth="yes"/>
      <point x="356" y="-162" smooth="yes"/>
      <point x="356" y="20" type="curve" smooth="yes"/>
      <point x="356" y="299" type="line"/>
      <point x="513" y="299" type="line"/>
      <point x="513" y="389" type="line"/>
      <point x="356" y="389" type="line"/>
      <point x="356" y="515" type="line" smooth="yes"/>
      <point x="356" y="597" smooth="yes"/>
      <point x="387" y="638" smooth="yes"/>
      <point x="449" y="638" type="curve" smooth="yes"/>
      <point x="479" y="638"/>
      <point x="509" y="629"/>
      <point x="535" y="613" type="curve"/>
      <point x="573" y="707" type="line"/>
      <point x="535" y="731" smooth="yes"/>
      <point x="485" y="744" smooth="yes"/>
      <point x="432" y="744" type="curve" smooth="yes"/>
      <point x="287" y="744" smooth="yes"/>
      <point x="220" y="672" smooth="yes"/>
      <point x="220" y="515" type="curve" smooth="yes"/>
      <point x="220" y="389" type="line"/>
      <point x="113" y="389" type="line"/>
      <point x="113" y="299" type="line"/>
      <point x="220" y="299" type="line"/>
      <point x="220" y="22" type="line" smooth="yes"/>
      <point x="220" y="-76"/>
      <point x="196" y="-101"/>
      <point x="104" y="-101" type="curve"/>
    </contour>
  </outline>
</glyph>
<glyph name="circumflex" format="1">
  <advance width="385"/>
  <unicode hex="02C6"/>
  <outline>
    <contour>
      <point x="82" y="626" type="line" name="hr00"/>
      <point x="192" y="710" type="line"/>
      <point x="303" y="626" type="line"/>
      <point x="351" y="674" type="line"/>
      <point x="223" y="821" type="line"/>
      <point x="162" y="821" type="line"/>
      <point x="34" y="674" type="line"/>
    </contour>
  </outline>
</glyph>
<glyph name="caron" format="1">
  <advance width="355"/>
  <unicode hex="02C7"/>
  <outline>
    <contour>
      <point x="288" y="825" type="line" name="hr00"/>
      <point x="178" y="741" type="line"/>
      <point x="67" y="825" type="line"/>
      <point x="19" y="777" type="line"/>
      <point x="147" y="630" type="line"/>
      <point x="208" y="630" type="line"/>
      <point x="336" y="777" type="line"/>
    </contour>
  </outline>
</glyph>
<glyph name="breve" format="1">
  <advance width="409"/>
  <unicode hex="02D8"/>
  <outline>
    <contour>
      <point x="204" y="636" type="curve" name="hr00"/>
      <point x="301" y="636"/>
      <point x="342" y="681"/>
      <point x="342" y="787" type="curve"/>
      <point x="268" y="787" type="line"/>
      <point x="268" y="736" smooth="yes"/>
      <point x="250" y="717" smooth="yes"/>
      <point x="204" y="717" type="curve" smooth="yes"/>
      <point x="158" y="717"/>
      <point x="140" y="736"/>
      <point x="140" y="787" type="curve"/>
      <point x="67" y="787" type="line"/>
      <point x="67" y="681" smooth="yes"/>
      <point x="108" y="636" smooth="yes"/>
    </contour>
  </outline>
</glyph>
<glyph name="pi" format="1">
  <advance width="652"/>
  <unicode hex="03C0"/>
  <outline>
    <contour>
      <point x="46" y="485" type="line" name="hr00"/>
      <point x="106" y="485" type="line"/>
      <point x="106" y="0" type="line"/>
      <point x="240" y="0" type="line"/>
      <point x="240" y="485" type="line"/>
      <point x="411" y="485" type="line"/>
      <point x="411" y="0" type="line"/>
      <point x="545" y="0" type="line"/>
      <point x="545" y="485" type="line"/>
      <point x="606" y="485" type="line"/>
      <point x="606" y="572" type="line"/>
      <point x="46" y="572" type="line"/>
    </contour>
  </outline>
</glyph>
<glyph name="endash" format="1">
  <advance width="564"/>
  <unicode hex="2013"/>
  <outline>
    <contour>
      <point x="62" y="272" type="line" name="hr00"/>
      <point x="502" y="272" type="line"/>
      <point x="502" y="364" type="line"/>
      <point x="62" y="364" type="line"/>
    </contour>
  </outline>
</glyph>
<glyph name="quoteleft" format="1">
  <advance width="274"/>
  <unicode hex="2018"/>
  <outline>
    <contour>
      <point x="192" y="567" type="curve" smooth="yes"/>
      <point x="192" y="613" smooth="yes"/>
      <point x="172" y="636" smooth="yes"/>
      <point x="172" y="663" type="curve" smooth="yes" name="hr01"/>
      <point x="172" y="694"/>
      <point x="192" y="723"/>
      <point x="218" y="742" type="curve"/>
      <point x="183" y="783" type="line"/>
      <point x="125" y="740" smooth="yes"/>
      <point x="56" y="669" smooth="yes"/>
      <point x="56" y="567" type="curve" smooth="yes"/>
      <point x="56" y="529" smooth="yes"/>
      <point x="66" y="489" smooth="yes"/>
      <point x="127" y="489" type="curve" smooth="yes"/>
      <point x="188" y="489" smooth="yes"/>
      <point x="192" y="529" smooth="yes"/>
    </contour>
  </outline>
</glyph>
<glyph name="dagger" format="1">
  <advance width="472"/>
  <unicode hex="2020"/>
  <outline>
    <contour>
      <point x="460" y="572" type="line" name="hr00"/>
      <point x="406" y="572" type="line"/>
      <point x="304" y="561" type="line"/>
      <point x="310" y="730" type="line"/>
      <point x="162" y="730" type="line"/>
      <point x="168" y="561" type="line"/>
      <point x="66" y="572" type="line"/>
      <point x="12" y="572" type="line"/>
      <point x="12" y="466" type="line"/>
      <point x="66" y="466" type="line"/>
      <point x="171" y="477" type="line"/>
      <point x="188" y="0" type="line"/>
      <point x="284" y="0" type="line"/>
      <point x="301" y="477" type="line"/>
      <point x="406" y="466" type="line"/>
      <point x="460" y="466" type="line"/>
    </contour>
  </outline>
</glyph>
<glyph name="ellipsis" format="1">
  <advance width="734"/>
  <unicode hex="2026"/>
  <outline>
    <contour>
      <point x="116" y="-8" type="curve" smooth="yes" name="hr00"/>
      <point x="167" y="-8" smooth="yes"/>
      <point x="189" y="15" smooth="yes"/>
      <point x="189" y="70" type="curve" smooth="yes"/>
      <point x="189" y="126" smooth="yes"/>
      <point x="168" y="149" smooth="yes"/>
      <point x="116" y="149" type="curve" smooth="yes"/>
      <point x="66" y="149" smooth="yes"/>
      <point x="45" y="126" smooth="yes"/>
      <point x="45" y="70" type="curve" smooth="yes"/>
      <point x="45" y="16" smooth="yes"/>
      <point x="67" y="-8" smooth="yes"/>
    </contour>
    <contour>
      <point x="366" y="-8" type="curve" smooth="yes"/>
      <point x="417" y="-8" smooth="yes"/>
      <point x="439" y="15" smooth="yes"/>
      <point x="439" y="70" type="curve" smooth="yes"/>
      <point x="439" y="126" smooth="yes"/>
      <point x="418" y="149" smooth="yes"/>
      <point x="366" y="149" type="curve" smooth="yes"/>
      <point x="316" y="149" smooth="yes"/>
      <point x="295" y="126" smooth="yes"/>
      <point x="295" y="70" type="curve" smooth="yes"/>
      <point x="295" y="16" smooth="yes"/>
      <point x="317" y="-8" smooth="yes"/>
    </contour>
    <contour>
      <point x="616" y="-8" type="curve" smooth="yes"/>
      <point x="667" y="-8" smooth="yes"/>
      <point x="689" y="15" smooth="yes"/>
      <point x="689" y="70" type="curve" smooth="yes"/>
      <point x="689" y="126" smooth="yes"/>
      <point x="668" y="149" smooth="yes"/>
      <point x="616" y="149" type="curve" smooth="yes"/>
      <point x="566" y="149" smooth="yes"/>
      <point x="545" y="126" smooth="yes"/>
      <point x="545" y="70" type="curve" smooth="yes"/>
      <point x="545" y="16" smooth="yes"/>
      <point x="567" y="-8" smooth="yes"/>
    </contour>
  </outline>
</glyph>
<glyph name="guilsinglright" format="1">
  <advance width="305"/>
  <unicode hex="203A"/>
  <outline>
    <contour>
      <point x="38" y="164" type="line" name="hr00"/>
      <point x="103" y="100" type="line"/>
      <point x="283" y="291" type="line"/>
      <point x="283" y="339" type="line"/>
      <point x="103" y="530" type="line"/>
      <point x="38" y="466" type="line"/>
      <point x="152" y="315" type="line"/>
    </contour>
  </outline>
</glyph>
<glyph name="zeroinferior" format="1">
  <advance width="387"/>
  <unicode hex="2080"/>
  <outline>
    <contour>
      <point x="193" y="-115" type="curve" smooth="yes" name="hr00"/>
      <point x="308" y="-115" smooth="yes"/>
      <point x="359" y="-51" smooth="yes"/>
      <point x="359" y="96" type="curve" smooth="yes"/>
      <point x="359" y="241" smooth="yes"/>
      <point x="307" y="307" smooth="yes"/>
      <point x="193" y="307" type="curve" smooth="yes"/>
      <point x="79" y="307" smooth="yes"/>
      <point x="28" y="241" smooth="yes"/>
      <point x="28" y="96" type="curve" smooth="yes"/>
      <point x="28" y="-51" smooth="yes"/>
      <point x="78" y="-115" smooth="yes"/>
    </contour>
    <contour>
      <point x="193" y="-30" type="curve" smooth="yes"/>
      <point x="155" y="-30" smooth="yes"/>
      <point x="143" y="-1" smooth="yes"/>
      <point x="143" y="96" type="curve" smooth="yes"/>
      <point x="143" y="192" smooth="yes"/>
      <point x="154" y="221" smooth="yes"/>
      <point x="193" y="221" type="curve" smooth="yes"/>
      <point x="232" y="221" smooth="yes"/>
      <point x="244" y="193" smooth="yes"/>
      <point x="244" y="96" type="curve" smooth="yes"/>
      <point x="244" y="-1" smooth="yes"/>
      <point x="232" y="-30" smooth="yes"/>
    </contour>
  </outline>
</glyph>
<glyph name="oneinferior" format="1">
  <advance width="387"/>
  <unicode hex="2081"/>
  <outline>
    <contour>
      <point x="149" y="-107" type="line" name="hr00"/>
      <point x="264" y="-107" type="line"/>
      <point x="264" y="298" type="line"/>
      <point x="169" y="298" type="line"/>
      <point x="149" y="283"/>
      <point x="109" y="272"/>
      <point x="67" y="268" type="curve"/>
      <point x="67" y="202" type="line"/>
      <point x="149" y="202" type="line"/>
    </contour>
  </outline>
</glyph>
<glyph name="sixinferior" format="1">
  <advance width="387"/>
  <unicode hex="2086"/>
  <outline>
    <contour>
      <point x="191" y="-115" type="curve" name="hr00"/>
      <point x="292" y="-115" smooth="yes"/>
      <point x="348" y="-68" smooth="yes"/>
      <point x="348" y="16" type="curve" smooth="yes"/>
      <point x="348" y="98" smooth="yes"/>
      <point x="301" y="145" smooth="yes"/>
      <point x="218" y="145" type="curve" smooth="yes"/>
      <point x="183" y="145"/>
      <point x="163" y="144"/>
      <point x="139" y="140" type="curve"/>
      <point x="142" y="200" smooth="yes"/>
      <point x="156" y="221" smooth="yes"/>
      <point x="194" y="221" type="curve" smooth="yes"/>
      <point x="222" y="221"/>
      <point x="238" y="207"/>
      <point x="241" y="177" type="curve"/>
      <point x="340" y="188" type="line"/>
      <point x="334" y="269" smooth="yes"/>
      <point x="288" y="307" smooth="yes"/>
      <point x="197" y="307" type="curve" smooth="yes"/>
      <point x="73" y="307" smooth="yes"/>
      <point x="28" y="243" smooth="yes"/>
      <point x="28" y="67" type="curve" smooth="yes"/>
      <point x="28" y="-54" smooth="yes"/>
      <point x="83" y="-115" smooth="yes"/>
    </contour>
    <contour>
      <point x="192" y="-30" type="curve"/>
      <point x="156" y="-30"/>
      <point x="143" y="-7"/>
      <point x="139" y="59" type="curve"/>
      <point x="159" y="63" smooth="yes"/>
      <point x="171" y="64" smooth="yes"/>
      <point x="181" y="64" type="curve" smooth="yes"/>
      <point x="216" y="64" smooth="yes"/>
      <point x="238" y="46" smooth="yes"/>
      <point x="238" y="16" type="curve" smooth="yes"/>
      <point x="238" y="-15" smooth="yes"/>
      <point x="222" y="-30" smooth="yes"/>
    </contour>
  </outline>
</glyph>
<glyph name="lira" format="1">
  <advance width="630"/>
  <unicode hex="20A4"/>
  <outline>
    <contour>
      <point x="67" y="0" type="line" name="hr00"/>
      <point x="592" y="0" type="line"/>
      <point x="592" y="106" type="line"/>
      <point x="217" y="106" type="line"/>
      <point x="249" y="133"/>
      <point x="261" y="158"/>
      <point x="263" y="203" type="curve"/>
      <point x="473" y="203" type="line"/>
      <point x="473" y="284" type="line"/>
      <point x="263" y="284" type="line"/>
      <point x="263" y="360" type="line"/>
      <point x="473" y="360" type="line"/>
      <point x="473" y="441" type="line"/>
      <point x="263" y="441" type="line"/>
      <point x="263" y="524" type="line" smooth="yes"/>
      <point x="263" y="606" smooth="yes"/>
      <point x="291" y="638" smooth="yes"/>
      <point x="361" y="638" type="curve" smooth="yes"/>
      <point x="430" y="638"/>
      <point x="463" y="605"/>
      <point x="463" y="534" type="curve"/>
      <point x="581" y="543" type="line"/>
      <point x="581" y="684" smooth="yes"/>
      <point x="513" y="744" smooth="yes"/>
      <point x="354" y="744" type="curve" smooth="yes"/>
      <point x="200" y="744" smooth="yes"/>
      <point x="127" y="673" smooth="yes"/>
      <point x="127" y="524" type="curve" smooth="yes"/>
      <point x="127" y="441" type="line"/>
      <point x="61" y="441" type="line"/>
      <point x="61" y="360" type="line"/>
      <point x="127" y="360" type="line"/>
      <point x="127" y="284" type="line"/>
      <point x="61" y="284" type="line"/>
      <point x="61" y="203" type="line"/>
      <point x="127" y="203" type="line"/>
      <point x="127" y="196" type="line" smooth="yes"/>
      <point x="127" y="151"/>
      <point x="104" y="108"/>
      <point x="67" y="83" type="curve"/>
    </contour>
  </outline>
</glyph>
<glyph name="uni2113" format="1">
  <advance width="360"/>
  <unicode hex="2113"/>
  <outline>
    <contour>
      <point x="243" y="-14" type="curve" name="hr00"/>
      <point x="276" y="-14"/>
      <point x="319" y="-6"/>
      <point x="355" y="8" type="curve"/>
      <point x="338" y="91" type="line"/>
      <point x="316" y="85" smooth="yes"/>
      <point x="302" y="83" smooth="yes"/>
      <point x="289" y="83" type="curve" smooth="yes"/>
      <point x="250" y="83" smooth="yes"/>
      <point x="235" y="105" smooth="yes"/>
      <point x="235" y="162" type="curve" smooth="yes"/>
      <point x="235" y="763" type="line"/>
      <point x="101" y="739" type="line"/>
      <point x="101" y="149" type="line" smooth="yes"/>
      <point x="101" y="35" smooth="yes"/>
      <point x="144" y="-14" smooth="yes"/>
    </contour>
  </outline>
</glyph>
<glyph name="partialdiff" format="1">
  <advance width="598"/>
  <unicode hex="2202"/>
  <outline>
    <contour>
      <point x="253" y="-14" type="curve" name="hr00"/>
      <point x="471" y="-14" smooth="yes"/>
      <point x="562" y="99" smooth="yes"/>
      <point x="562" y="371" type="curve" smooth="yes"/>
      <point x="562" y="518"/>
      <point x="509" y="654"/>
      <point x="410" y="764" type="curve"/>
      <point x="335" y="689" type="line"/>
      <point x="389" y="621"/>
      <point x="418" y="554"/>
      <point x="428" y="474" type="curve"/>
      <point x="407" y="495" smooth="yes"/>
      <point x="377" y="506" smooth="yes"/>
      <point x="340" y="506" type="curve" smooth="yes"/>
      <point x="131" y="506" smooth="yes"/>
      <point x="36" y="401" smooth="yes"/>
      <point x="36" y="169" type="curve" smooth="yes"/>
      <point x="36" y="46" smooth="yes"/>
      <point x="107" y="-14" smooth="yes"/>
    </contour>
    <contour>
      <point x="271" y="85" type="curve" smooth="yes"/>
      <point x="206" y="85" smooth="yes"/>
      <point x="172" y="120" smooth="yes"/>
      <point x="172" y="188" type="curve" smooth="yes"/>
      <point x="172" y="337" smooth="yes"/>
      <point x="220" y="407" smooth="yes"/>
      <point x="323" y="407" type="curve" smooth="yes"/>
      <point x="388" y="407" smooth="yes"/>
      <point x="421" y="372" smooth="yes"/>
      <point x="421" y="304" type="curve" smooth="yes"/>
      <point x="421" y="155" smooth="yes"/>
      <point x="373" y="85" smooth="yes"/>
    </contour>
  </outline>
</glyph>
<glyph name="Delta" format="1">
  <advance width="606"/>
  <unicode hex="2206"/>
  <outline>
    <contour>
      <point x="229" y="730" type="line" name="hr00"/>
      <point x="-30" y="0" type="line"/>
      <point x="636" y="0" type="line"/>
      <point x="377" y="730" type="line"/>
    </contour>
    <contour>
      <point x="303" y="580" type="line"/>
      <point x="471" y="88" type="line"/>
      <point x="135" y="88" type="line"/>
    </contour>
  </outline>
</glyph>
<glyph name="product" format="1">
  <advance width="760"/>
  <unicode hex="220F"/>
  <outline>
    <contour>
      <point x="54" y="642" type="line" name="hr00"/>
      <point x="119" y="642" type="line"/>
      <point x="119" y="-173" type="line"/>
      <point x="253" y="-173" type="line"/>
      <point x="253" y="642" type="line"/>
      <point x="506" y="642" type="line"/>
      <point x="506" y="-173" type="line"/>
      <point x="640" y="-173" type="line"/>
      <point x="640" y="642" type="line"/>
      <point x="706" y="642" type="line"/>
      <point x="706" y="730" type="line"/>
      <point x="54" y="730" type="line"/>
    </contour>
  </outline>
</glyph>
<glyph name="minus" format="1">
  <advance width="580"/>
  <unicode hex="2212"/>
  <outline>
    <contour>
      <point x="86" y="272" type="line" name="hr00"/>
      <point x="494" y="272" type="line"/>
      <point x="494" y="364" type="line"/>
      <point x="86" y="364" type="line"/>
    </contour>
  </outline>
</glyph>
<glyph name="radical" format="1">
  <advance width="571"/>
  <unicode hex="221A"/>
  <outline>
    <contour>
      <point x="299" y="0" type="line" name="hr00"/>
      <point x="491" y="643" type="line"/>
      <point x="629" y="643" type="line"/>
      <point x="629" y="730" type="line"/>
      <point x="382" y="730" type="line"/>
      <point x="220" y="163" type="line"/>
      <point x="127" y="437" type="line"/>
      <point x="-8" y="437" type="line"/>
      <point x="151" y="0" type="line"/>
    </contour>
  </outline>
</glyph>
<glyph name="infinity" format="1">
  <advance width="606"/>
  <unicode hex="221E"/>
  <outline>
    <contour>
      <point x="179" y="128" type="curve" name="hr00"/>
      <point x="242" y="128"/>
      <point x="278" y="144"/>
      <point x="304" y="182" type="curve"/>
      <point x="329" y="145" smooth="yes"/>
      <point x="367" y="128" smooth="yes"/>
      <point x="427" y="128" type="curve" smooth="yes"/>
      <point x="536" y="128" smooth="yes"/>
      <point x="582" y="185" smooth="yes"/>
      <point x="582" y="318" type="curve" smooth="yes"/>
      <point x="582" y="452" smooth="yes"/>
      <point x="536" y="509" smooth="yes"/>
      <point x="427" y="509" type="curve" smooth="yes"/>
      <point x="364" y="509"/>
      <point x="325" y="492"/>
      <point x="301" y="455" type="curve"/>
      <point x="276" y="492" smooth="yes"/>
      <point x="238" y="509" smooth="yes"/>
      <point x="179" y="509" type="curve" smooth="yes"/>
      <point x="70" y="509" smooth="yes"/>
      <point x="24" y="452" smooth="yes"/>
      <point x="24" y="318" type="curve" smooth="yes"/>
      <point x="24" y="185" smooth="yes"/>
      <point x="70" y="128" smooth="yes"/>
    </contour>
    <contour>
      <point x="192" y="232" type="curve"/>
      <point x="142" y="232" smooth="yes"/>
      <point x="122" y="256" smooth="yes"/>
      <point x="122" y="318" type="curve" smooth="yes"/>
      <point x="122" y="381" smooth="yes"/>
      <point x="141" y="404" smooth="yes"/>
      <point x="192" y="404" type="curve" smooth="yes"/>
      <point x="224" y="404"/>
      <point x="253" y="381"/>
      <point x="265" y="345" type="curve"/>
      <point x="259" y="312" type="line" smooth="yes"/>
      <point x="248" y="256" smooth="yes"/>
      <point x="229" y="232" smooth="yes"/>
    </contour>
    <contour>
      <point x="347" y="326" type="line" smooth="yes"/>
      <point x="357" y="381" smooth="yes"/>
      <point x="378" y="404" smooth="yes"/>
      <point x="414" y="404" type="curve" smooth="yes"/>
      <point x="465" y="404" smooth="yes"/>
      <point x="484" y="381" smooth="yes"/>
      <point x="484" y="318" type="curve" smooth="yes"/>
      <point x="484" y="256" smooth="yes"/>
      <point x="464" y="232" smooth="yes"/>
      <point x="414" y="232" type="curve" smooth="yes"/>
      <point x="381" y="232"/>
      <point x="352" y="255"/>
      <point x="340" y="290" type="curve"/>
    </contour>
  </outline>
</glyph>
<glyph name="lozenge" format="1">
  <advance width="556"/>
  <unicode hex="25CA"/>
  <outline>
    <contour>
      <point x="204" y="770" type="line" name="hr00"/>
      <point x="18" y="335" type="line"/>
      <point x="204" y="-100" type="line"/>
      <point x="352" y="-100" type="line"/>
      <point x="538" y="335" type="line"/>
      <point x="352" y="770" type="line"/>
    </contour>
    <contour>
      <point x="278" y="26" type="line"/>
      <point x="153" y="335" type="line"/>
      <point x="278" y="644" type="line"/>
      <point x="403" y="335" type="line"/>
    </contour>
  </outline>
</glyph>
<glyph name="acute.case" format="1">
  <advance width="298"/>
  <outline>
    <contour>
      <point x="72" y="780" type="line" name="hr00"/>
      <point x="282" y="889" type="line"/>
      <point x="222" y="985" type="line"/>
      <point x="27" y="852" type="line"/>
    </contour>
  </outline>
</glyph>
<glyph name="barra" format="1">
  <advance width="414"/>
  <outline>
    <contour>
      <point x="414" y="299" type="line" name="hr00"/>
      <point x="414" y="385" type="line"/>
      <point x="0" y="385" type="line"/>
      <point x="0" y="299" type="line"/>
    </contour>
  </outline>
</glyph>
<glyph name="caron.case" format="1">
  <advance width="355"/>
  <outline>
    <contour>
      <point x="288" y="985" type="line" name="hr00"/>
      <point x="178" y="901" type="line"/>
      <point x="67" y="985" type="line"/>
      <point x="19" y="937" type="line"/>
      <point x="147" y="790" type="line"/>
      <point x="208" y="790" type="line"/>
      <point x="336" y="937" type="line"/>
    </contour>
  </outline>
</glyph>
<glyph name="commaaccent" format="1">
  <advance width="275"/>
  <outline>
    <contour>
      <point x="83" y="-125" type="curve" smooth="yes"/>
      <point x="83" y="-163" smooth="yes"/>
      <point x="103" y="-190" smooth="yes"/>
      <point x="103" y="-217" type="curve" smooth="yes" name="hr01"/>
      <point x="103" y="-251"/>
      <point x="80" y="-274"/>
      <point x="56" y="-296" type="curve"/>
      <point x="91" y="-337" type="line"/>
      <point x="150" y="-291" smooth="yes"/>
      <point x="219" y="-222" smooth="yes"/>
      <point x="219" y="-125" type="curve" smooth="yes"/>
      <point x="219" y="-90" smooth="yes"/>
      <point x="215" y="-50" smooth="yes"/>
      <point x="150" y="-50" type="curve" smooth="yes"/>
      <point x="87" y="-50" smooth="yes"/>
      <point x="83" y="-90" smooth="yes"/>
    </contour>
  </outline>
</glyph>
<glyph name="eslash" format="1">
  <advance width="294"/>
  <outline>
    <contour>
      <point x="6" y="280" type="line" name="hr00"/>
      <point x="288" y="392" type="line"/>
      <point x="288" y="479" type="line"/>
      <point x="6" y="367" type="line"/>
    </contour>
  </outline>
</glyph>
<glyph name="ethbar" format="1">
  <advance width="352"/>
  <outline>
    <contour>
      <point x="384" y="320" type="line" name="hr00"/>
      <point x="384" y="404" type="line"/>
      <point x="12" y="404" type="line"/>
      <point x="12" y="320" type="line"/>
    </contour>
  </outline>
</glyph>
<glyph name="hungarumlaut.case" format="1">
  <advance width="532"/>
  <outline>
    <contour>
      <point x="47" y="780" type="line" name="hr00"/>
      <point x="257" y="889" type="line"/>
      <point x="197" y="985" type="line"/>
      <point x="2" y="852" type="line"/>
    </contour>
    <contour>
      <point x="320" y="780" type="line"/>
      <point x="530" y="889" type="line"/>
      <point x="470" y="985" type="line"/>
      <point x="275" y="852" type="line"/>
    </contour>
  </outline>
</glyph>
<glyph name="macron.case" format="1">
  <advance width="354"/>
  <outline>
    <contour>
      <point x="42" y="830" type="line" name="hr00"/>
      <point x="312" y="830" type="line"/>
      <point x="312" y="927" type="line"/>
      <point x="42" y="927" type="line"/>
    </contour>
  </outline>
</glyph>
<glyph name="ringacute.case" format="1">
  <advance width="258"/>
  <outline>
    <contour>
      <point x="127" y="772" type="curve" smooth="yes" name="hr00"/>
      <point x="200" y="772" smooth="yes"/>
      <point x="242" y="813" smooth="yes"/>
      <point x="242" y="884" type="curve" smooth="yes"/>
      <point x="242" y="890"/>
      <point x="241" y="896"/>
      <point x="240" y="910" type="curve"/>
      <point x="347" y="961" type="line"/>
      <point x="291" y="1059" type="line"/>
      <point x="188" y="985" type="line"/>
      <point x="171" y="993" smooth="yes"/>
      <point x="150" y="997" smooth="yes"/>
      <point x="127" y="997" type="curve" smooth="yes"/>
      <point x="56" y="997" smooth="yes"/>
      <point x="16" y="956" smooth="yes"/>
      <point x="16" y="884" type="curve" smooth="yes"/>
      <point x="16" y="813" smooth="yes"/>
      <point x="56" y="772" smooth="yes"/>
    </contour>
    <contour>
      <point x="127" y="836" type="curve" smooth="yes"/>
      <point x="103" y="836" smooth="yes"/>
      <point x="90" y="853" smooth="yes"/>
      <point x="90" y="884" type="curve" smooth="yes"/>
      <point x="90" y="916" smooth="yes"/>
      <point x="103" y="934" smooth="yes"/>
      <point x="127" y="934" type="curve" smooth="yes"/>
      <point x="154" y="934" smooth="yes"/>
      <point x="168" y="916" smooth="yes"/>
      <point x="168" y="884" type="curve" smooth="yes"/>
      <point x="168" y="853" smooth="yes"/>
      <point x="154" y="836" smooth="yes"/>
    </contour>
  </outline>
</glyph>
